<?xml version="1.0" encoding="UTF-8" standalone="no"?>
<!-- Created with Inkscape (http://www.inkscape.org/) -->

<svg
   xmlns:dc="http://purl.org/dc/elements/1.1/"
   xmlns:cc="http://creativecommons.org/ns#"
   xmlns:rdf="http://www.w3.org/1999/02/22-rdf-syntax-ns#"
   xmlns:svg="http://www.w3.org/2000/svg"
   xmlns="http://www.w3.org/2000/svg"
   xmlns:sodipodi="http://sodipodi.sourceforge.net/DTD/sodipodi-0.dtd"
   xmlns:inkscape="http://www.inkscape.org/namespaces/inkscape"
   width="178.27762mm"
   height="184.73615mm"
   viewBox="0 0 178.27762 184.73615"
   version="1.1"
   id="svg8"
   inkscape:version="0.92.5 (2060ec1f9f, 2020-04-08)"
   sodipodi:docname="logos_amostra_v1_site.svg">
  <defs
     id="defs2" />
  <sodipodi:namedview
     id="base"
     pagecolor="#ffffff"
     bordercolor="#666666"
     borderopacity="1.0"
     inkscape:pageopacity="0.0"
     inkscape:pageshadow="2"
     inkscape:zoom="0.49497475"
     inkscape:cx="207.22016"
     inkscape:cy="294.57851"
     inkscape:document-units="mm"
     inkscape:current-layer="g2002"
     showgrid="false"
     showguides="true"
     inkscape:guide-bbox="true"
     inkscape:window-width="1870"
     inkscape:window-height="1016"
     inkscape:window-x="1490"
     inkscape:window-y="27"
     inkscape:window-maximized="1"
     fit-margin-top="0"
     fit-margin-left="0"
     fit-margin-right="0"
     fit-margin-bottom="0" />
  <metadata
     id="metadata5">
    <rdf:RDF>
      <cc:Work
         rdf:about="">
        <dc:format>image/svg+xml</dc:format>
        <dc:type
           rdf:resource="http://purl.org/dc/dcmitype/StillImage" />
        <dc:title></dc:title>
      </cc:Work>
    </rdf:RDF>
  </metadata>
  <g
     inkscape:label="Layer 1"
     inkscape:groupmode="layer"
     id="layer1"
     transform="translate(-6718.5618,-785.01109)">
    <g
       id="g2008"
       transform="translate(6166.4425,-85.526249)">
      <g
         id="g2002"
         transform="translate(82.972751,8.245537)">
        <g
           id="g2000">
          <g
             id="g1998"
             transform="matrix(1.6258233,0,0,1.6258233,-450.1547,791.9882)">
            <g
               transform="matrix(1.0395376,0,0,1.0395376,119.961,3.0298038)"
               featurekey="symbolContainer"
               id="g1984"
               style="fill:#222831" />
            <g
               transform="matrix(0.68601297,0,0,0.68601297,33.559647,184.94834)"
               featurekey="sloganFeature-0"
               id="g1996"
               style="fill:#222831" />
            <g
               style="fill:#222831"
               id="g2060"
               featurekey="monogramFeature-0"
               transform="matrix(2.1717549,0,0,2.1717549,575.52818,-10.965155)">
              <g
                 id="g2052">
                <path
                   transform="matrix(0.47866249,0,0,0.47866249,-4.6643392,26.355084)"
                   style="fill:#222831"
                   id="path2048"
                   d="M 104.6,41.3 A 52.2,52.2 0 0 0 101.1,30.1 51.1,51.1 0 0 0 44.3,1 49.6,49.6 0 0 0 38.6,2.5 49.1,49.1 0 0 0 30.7,5.2 51.6,51.6 0 0 0 6.3,77 a 53.7,53.7 0 0 0 4.1,6.4 57,57 0 0 0 5,5.7 51.7,51.7 0 0 0 55.3,11.5 l 3.3,-1.4 3,-1.5 a 50.9,50.9 0 0 0 5.8,-3.8 l 2.7,-2.1 1.2,-1.1 1.1,-0.9 2,-1.8 0.7,-0.6 0.6,-0.7 1.8,-2 a 48.5,48.5 0 0 0 5.9,-8.3 50.4,50.4 0 0 0 5.6,-14.7 51.6,51.6 0 0 0 0.2,-20.4 z m -17.5,47.3 -1.2,1.1 -1.2,1.1 -2.6,2.1 a 49.5,49.5 0 0 1 -5.7,3.6 l -3,1.5 -3.2,1.3 -4.9,1.6 H 64.8 A 50.9,50.9 0 0 1 44.5,101 51.8,51.8 0 0 1 33.4,97.4 50.5,50.5 0 0 1 22.9,91 52,52 0 0 1 13.8,81.6 50.3,50.3 0 0 1 10.1,75.9 C 9.5,74.9 9,73.9 8.5,72.8 8,71.7 7.5,70.7 7.2,69.6 a 50.6,50.6 0 0 1 8.6,-50.8 l 0.8,-0.8 0.5,-0.6 0.6,-0.6 1.2,-1.1 2.4,-2.1 a 50.5,50.5 0 0 1 41.1,-10.4 48.5,48.5 0 0 1 14.7,5.2 47,47 0 0 1 8.3,5.8 l 2,1.8 0.7,0.6 0.6,0.7 1.8,2 a 49.7,49.7 0 0 1 11.3,22.9 50.8,50.8 0 0 1 -0.1,20.2 51.6,51.6 0 0 1 -3.6,11 50.2,50.2 0 0 1 -6.6,10.5 l -2.1,2.4 z m -44.9,13 a 50.1,50.1 0 0 1 -13.7,-5 51.8,51.8 0 0 1 -6.2,-4 55.2,55.2 0 0 1 -5.5,-4.8 49.9,49.9 0 0 1 -11,-53.2 c 0.4,-1.1 0.9,-2.1 1.3,-3.1 l 0.6,-1.3 a 50.2,50.2 0 0 0 -3.4,11 51.3,51.3 0 0 0 2.4,28.5 c 0.4,1.1 0.9,2.2 1.4,3.2 0.5,1 1,2.1 1.6,3.1 a 50.6,50.6 0 0 0 3.7,5.8 51.5,51.5 0 0 0 9.2,9.5 50.9,50.9 0 0 0 10.7,6.5 51,51 0 0 0 28.7,3.9 50.3,50.3 0 0 1 -19.8,-0.1 z m 61.9,-39.9 a 50.2,50.2 0 0 1 -5.5,14.7 48.4,48.4 0 0 1 -5.8,8.3 l -1.8,2 -0.6,0.7 -0.7,0.6 -1.9,1.7 H 88 l 2.3,-2.4 2.1,-2.5 A 51.3,51.3 0 0 0 98.9,74 51.4,51.4 0 0 0 102.1,42.4 49.6,49.6 0 0 0 99.6,34.2 49.4,49.4 0 0 0 96.5,27.7 48.7,48.7 0 0 0 90.6,19.4 l -1.8,-2 -0.6,-0.7 -0.7,-0.6 -2,-1.8 A 49.9,49.9 0 0 0 77.3,8 49.3,49.3 0 0 0 70.8,4.8 49.8,49.8 0 0 0 62.6,2.2 52.2,52.2 0 0 0 49.9,1 50.8,50.8 0 0 1 72.6,4.2 l 3.2,1.3 3.1,1.6 a 50.1,50.1 0 0 1 5.7,3.7 l 2.6,2.1 1.2,1.1 1.2,1.1 2.3,2.3 2.1,2.4 a 50.4,50.4 0 0 1 6.5,10.5 51.6,51.6 0 0 1 3.6,11 51.1,51.1 0 0 1 0,20.3 z"
                   inkscape:connector-curvature="0" />
                <path
                   id="path2050"
                   d="m 34.14,33.84 c 1.2,-2.1 2.1,-3.9 2.1,-5.7 0,-1.8 -1.56,-1.92 -2.82,-1.92 -6.06,0 -13.26,4.44 -19.86,12.12 -6,7.02 -10.32,17.22 -10.32,25.5 0,8.58 3.3,11.58 9.3,11.58 11.52,0 25.92,-15.96 25.92,-21.12 0,-0.9 -0.66,-1.14 -2.04,-1.14 -1.38,0 -9.36,1.92 -13.86,3.66 -0.84,0.3 0.3,-1.44 1.44,-1.92 C 31.02,51.84 39.72,50.28 39.72,54 39.72,61.68 24,77.28 12.54,77.28 4.56,77.28 1.8,70.74 1.8,63.84 c 0,-7.8 2.52,-16.2 10.44,-26.34 5.94,-7.56 14.28,-12.54 20.64,-12.54 2.52,0 4.44,0.9 4.44,2.82 0,1.98 -1.14,5.28 -1.98,6.24 -0.84,0.84 -1.68,0.6 -1.2,-0.18 z"
                   inkscape:connector-curvature="0" />
              </g>
              <g
                 id="g2058">
                <path
                   inkscape:connector-curvature="0"
                   d="M 104.6,41.3 A 52.2,52.2 0 0 0 101.1,30.1 51.1,51.1 0 0 0 44.3,1 49.6,49.6 0 0 0 38.6,2.5 49.1,49.1 0 0 0 30.7,5.2 51.6,51.6 0 0 0 6.3,77 a 53.7,53.7 0 0 0 4.1,6.4 57,57 0 0 0 5,5.7 51.7,51.7 0 0 0 55.3,11.5 l 3.3,-1.4 3,-1.5 a 50.9,50.9 0 0 0 5.8,-3.8 l 2.7,-2.1 1.2,-1.1 1.1,-0.9 2,-1.8 0.7,-0.6 0.6,-0.7 1.8,-2 a 48.5,48.5 0 0 0 5.9,-8.3 50.4,50.4 0 0 0 5.6,-14.7 51.6,51.6 0 0 0 0.2,-20.4 z m -17.5,47.3 -1.2,1.1 -1.2,1.1 -2.6,2.1 a 49.5,49.5 0 0 1 -5.7,3.6 l -3,1.5 -3.2,1.3 -4.9,1.6 H 64.8 A 50.9,50.9 0 0 1 44.5,101 51.8,51.8 0 0 1 33.4,97.4 50.5,50.5 0 0 1 22.9,91 52,52 0 0 1 13.8,81.6 50.3,50.3 0 0 1 10.1,75.9 C 9.5,74.9 9,73.9 8.5,72.8 8,71.7 7.5,70.7 7.2,69.6 a 50.6,50.6 0 0 1 8.6,-50.8 l 0.8,-0.8 0.5,-0.6 0.6,-0.6 1.2,-1.1 2.4,-2.1 a 50.5,50.5 0 0 1 41.1,-10.4 48.5,48.5 0 0 1 14.7,5.2 47,47 0 0 1 8.3,5.8 l 2,1.8 0.7,0.6 0.6,0.7 1.8,2 a 49.7,49.7 0 0 1 11.3,22.9 50.8,50.8 0 0 1 -0.1,20.2 51.6,51.6 0 0 1 -3.6,11 50.2,50.2 0 0 1 -6.6,10.5 l -2.1,2.4 z m -44.9,13 a 50.1,50.1 0 0 1 -13.7,-5 51.8,51.8 0 0 1 -6.2,-4 55.2,55.2 0 0 1 -5.5,-4.8 49.9,49.9 0 0 1 -11,-53.2 c 0.4,-1.1 0.9,-2.1 1.3,-3.1 l 0.6,-1.3 a 50.2,50.2 0 0 0 -3.4,11 51.3,51.3 0 0 0 2.4,28.5 c 0.4,1.1 0.9,2.2 1.4,3.2 0.5,1 1,2.1 1.6,3.1 a 50.6,50.6 0 0 0 3.7,5.8 51.5,51.5 0 0 0 9.2,9.5 50.9,50.9 0 0 0 10.7,6.5 51,51 0 0 0 28.7,3.9 50.3,50.3 0 0 1 -19.8,-0.1 z m 61.9,-39.9 a 50.2,50.2 0 0 1 -5.5,14.7 48.4,48.4 0 0 1 -5.8,8.3 l -1.8,2 -0.6,0.7 -0.7,0.6 -1.9,1.7 H 88 l 2.3,-2.4 2.1,-2.5 A 51.3,51.3 0 0 0 98.9,74 51.4,51.4 0 0 0 102.1,42.4 49.6,49.6 0 0 0 99.6,34.2 49.4,49.4 0 0 0 96.5,27.7 48.7,48.7 0 0 0 90.6,19.4 l -1.8,-2 -0.6,-0.7 -0.7,-0.6 -2,-1.8 A 49.9,49.9 0 0 0 77.3,8 49.3,49.3 0 0 0 70.8,4.8 49.8,49.8 0 0 0 62.6,2.2 52.2,52.2 0 0 0 49.9,1 50.8,50.8 0 0 1 72.6,4.2 l 3.2,1.3 3.1,1.6 a 50.1,50.1 0 0 1 5.7,3.7 l 2.6,2.1 1.2,1.1 1.2,1.1 2.3,2.3 2.1,2.4 a 50.4,50.4 0 0 1 6.5,10.5 51.6,51.6 0 0 1 3.6,11 51.1,51.1 0 0 1 0,20.3 z"
                   id="path2054"
                   style="fill:#222831"
                   transform="matrix(0.47866249,0,0,0.47866249,-4.6643392,26.355084)" />
                <path
                   inkscape:connector-curvature="0"
                   d="m 34.14,33.84 c 1.2,-2.1 2.1,-3.9 2.1,-5.7 0,-1.8 -1.56,-1.92 -2.82,-1.92 -6.06,0 -13.26,4.44 -19.86,12.12 -6,7.02 -10.32,17.22 -10.32,25.5 0,8.58 3.3,11.58 9.3,11.58 11.52,0 25.92,-15.96 25.92,-21.12 0,-0.9 -0.66,-1.14 -2.04,-1.14 -1.38,0 -9.36,1.92 -13.86,3.66 -0.84,0.3 0.3,-1.44 1.44,-1.92 C 31.02,51.84 39.72,50.28 39.72,54 39.72,61.68 24,77.28 12.54,77.28 4.56,77.28 1.8,70.74 1.8,63.84 c 0,-7.8 2.52,-16.2 10.44,-26.34 5.94,-7.56 14.28,-12.54 20.64,-12.54 2.52,0 4.44,0.9 4.44,2.82 0,1.98 -1.14,5.28 -1.98,6.24 -0.84,0.84 -1.68,0.6 -1.2,-0.18 z"
                   id="path2056" />
              </g>
            </g>
          </g>
        </g>
      </g>
    </g>
  </g>
</svg>
