<?xml version="1.0" encoding="UTF-8" standalone="no"?>
<!-- Created with Inkscape (http://www.inkscape.org/) -->

<svg
   xmlns:dc="http://purl.org/dc/elements/1.1/"
   xmlns:cc="http://creativecommons.org/ns#"
   xmlns:rdf="http://www.w3.org/1999/02/22-rdf-syntax-ns#"
   xmlns:svg="http://www.w3.org/2000/svg"
   xmlns="http://www.w3.org/2000/svg"
   xmlns:sodipodi="http://sodipodi.sourceforge.net/DTD/sodipodi-0.dtd"
   xmlns:inkscape="http://www.inkscape.org/namespaces/inkscape"
   width="1291.7909mm"
   height="184.73615mm"
   viewBox="0 0 1291.7909 184.73615"
   version="1.1"
   id="svg8"
   inkscape:version="0.92.5 (2060ec1f9f, 2020-04-08)"
   sodipodi:docname="gabrielam_logo_full.svg">
  <defs
     id="defs2" />
  <sodipodi:namedview
     id="base"
     pagecolor="#ffffff"
     bordercolor="#666666"
     borderopacity="1.0"
     inkscape:pageopacity="0.0"
     inkscape:pageshadow="2"
     inkscape:zoom="0.16"
     inkscape:cx="1761.3148"
     inkscape:cy="760.4865"
     inkscape:document-units="mm"
     inkscape:current-layer="g2028"
     showgrid="false"
     showguides="true"
     inkscape:guide-bbox="true"
     inkscape:window-width="1872"
     inkscape:window-height="1016"
     inkscape:window-x="1488"
     inkscape:window-y="27"
     inkscape:window-maximized="1"
     fit-margin-top="0"
     fit-margin-left="0"
     fit-margin-right="0"
     fit-margin-bottom="0" />
  <metadata
     id="metadata5">
    <rdf:RDF>
      <cc:Work
         rdf:about="">
        <dc:format>image/svg+xml</dc:format>
        <dc:type
           rdf:resource="http://purl.org/dc/dcmitype/StillImage" />
        <dc:title></dc:title>
      </cc:Work>
    </rdf:RDF>
  </metadata>
  <g
     inkscape:label="Layer 1"
     inkscape:groupmode="layer"
     id="layer1"
     transform="translate(-7198.5913,-732.85039)">
    <g
       id="g2008"
       transform="translate(6166.4425,-85.526249)">
      <g
         id="g2002"
         transform="translate(82.972751,8.245537)">
        <g
           id="g2028"
           transform="translate(1204.2321,18.142857)">
          <g
             transform="matrix(1.6258233,0,0,1.6258233,-450.1547,791.9882)"
             id="g2026">
            <g
               style="fill:#222831"
               id="g2020"
               featurekey="nameFeature-0"
               transform="matrix(1.0804604,0,0,1.0804604,-1.6855187,122.33103)" />
            <g
               style="fill:#222831"
               id="g2024"
               featurekey="sloganFeature-0"
               transform="matrix(0.68601297,0,0,0.68601297,33.559647,184.94834)" />
          </g>
          <g
             id="g6802">
            <g
               id="g6789"
               transform="matrix(1.6258233,0,0,1.6258233,-450.15483,791.98821)">
              <g
                 style="fill:#222831"
                 id="g2012"
                 featurekey="symbolContainer"
                 transform="matrix(1.0395376,0,0,1.0395376,119.961,3.0298038)">
                <path
                   inkscape:connector-curvature="0"
                   d="M 104.6,41.3 A 52.2,52.2 0 0 0 101.1,30.1 51.1,51.1 0 0 0 44.3,1 49.6,49.6 0 0 0 38.6,2.5 49.1,49.1 0 0 0 30.7,5.2 51.6,51.6 0 0 0 6.3,77 a 53.7,53.7 0 0 0 4.1,6.4 57,57 0 0 0 5,5.7 51.7,51.7 0 0 0 55.3,11.5 l 3.3,-1.4 3,-1.5 a 50.9,50.9 0 0 0 5.8,-3.8 l 2.7,-2.1 1.2,-1.1 1.1,-0.9 2,-1.8 0.7,-0.6 0.6,-0.7 1.8,-2 a 48.5,48.5 0 0 0 5.9,-8.3 50.4,50.4 0 0 0 5.6,-14.7 51.6,51.6 0 0 0 0.2,-20.4 z m -17.5,47.3 -1.2,1.1 -1.2,1.1 -2.6,2.1 a 49.5,49.5 0 0 1 -5.7,3.6 l -3,1.5 -3.2,1.3 -4.9,1.6 H 64.8 A 50.9,50.9 0 0 1 44.5,101 51.8,51.8 0 0 1 33.4,97.4 50.5,50.5 0 0 1 22.9,91 52,52 0 0 1 13.8,81.6 50.3,50.3 0 0 1 10.1,75.9 C 9.5,74.9 9,73.9 8.5,72.8 8,71.7 7.5,70.7 7.2,69.6 a 50.6,50.6 0 0 1 8.6,-50.8 l 0.8,-0.8 0.5,-0.6 0.6,-0.6 1.2,-1.1 2.4,-2.1 a 50.5,50.5 0 0 1 41.1,-10.4 48.5,48.5 0 0 1 14.7,5.2 47,47 0 0 1 8.3,5.8 l 2,1.8 0.7,0.6 0.6,0.7 1.8,2 a 49.7,49.7 0 0 1 11.3,22.9 50.8,50.8 0 0 1 -0.1,20.2 51.6,51.6 0 0 1 -3.6,11 50.2,50.2 0 0 1 -6.6,10.5 l -2.1,2.4 z m -44.9,13 a 50.1,50.1 0 0 1 -13.7,-5 51.8,51.8 0 0 1 -6.2,-4 55.2,55.2 0 0 1 -5.5,-4.8 49.9,49.9 0 0 1 -11,-53.2 c 0.4,-1.1 0.9,-2.1 1.3,-3.1 l 0.6,-1.3 a 50.2,50.2 0 0 0 -3.4,11 51.3,51.3 0 0 0 2.4,28.5 c 0.4,1.1 0.9,2.2 1.4,3.2 0.5,1 1,2.1 1.6,3.1 a 50.6,50.6 0 0 0 3.7,5.8 51.5,51.5 0 0 0 9.2,9.5 50.9,50.9 0 0 0 10.7,6.5 51,51 0 0 0 28.7,3.9 50.3,50.3 0 0 1 -19.8,-0.1 z m 61.9,-39.9 a 50.2,50.2 0 0 1 -5.5,14.7 48.4,48.4 0 0 1 -5.8,8.3 l -1.8,2 -0.6,0.7 -0.7,0.6 -1.9,1.7 H 88 l 2.3,-2.4 2.1,-2.5 A 51.3,51.3 0 0 0 98.9,74 51.4,51.4 0 0 0 102.1,42.4 49.6,49.6 0 0 0 99.6,34.2 49.4,49.4 0 0 0 96.5,27.7 48.7,48.7 0 0 0 90.6,19.4 l -1.8,-2 -0.6,-0.7 -0.7,-0.6 -2,-1.8 A 49.9,49.9 0 0 0 77.3,8 49.3,49.3 0 0 0 70.8,4.8 49.8,49.8 0 0 0 62.6,2.2 52.2,52.2 0 0 0 49.9,1 50.8,50.8 0 0 1 72.6,4.2 l 3.2,1.3 3.1,1.6 a 50.1,50.1 0 0 1 5.7,3.7 l 2.6,2.1 1.2,1.1 1.2,1.1 2.3,2.3 2.1,2.4 a 50.4,50.4 0 0 1 6.5,10.5 51.6,51.6 0 0 1 3.6,11 51.1,51.1 0 0 1 0,20.3 z"
                   id="path2010" />
              </g>
              <g
                 style="fill:#222831"
                 id="g2016"
                 featurekey="monogramFeature-0"
                 transform="matrix(2.1717549,0,0,2.1717549,130.09085,-54.206983)">
                <path
                   inkscape:connector-curvature="0"
                   d="m 34.14,33.84 c 1.2,-2.1 2.1,-3.9 2.1,-5.7 0,-1.8 -1.56,-1.92 -2.82,-1.92 -6.06,0 -13.26,4.44 -19.86,12.12 -6,7.02 -10.32,17.22 -10.32,25.5 0,8.58 3.3,11.58 9.3,11.58 11.52,0 25.92,-15.96 25.92,-21.12 0,-0.9 -0.66,-1.14 -2.04,-1.14 -1.38,0 -9.36,1.92 -13.86,3.66 -0.84,0.3 0.3,-1.44 1.44,-1.92 C 31.02,51.84 39.72,50.28 39.72,54 39.72,61.68 24,77.28 12.54,77.28 4.56,77.28 1.8,70.74 1.8,63.84 c 0,-7.8 2.52,-16.2 10.44,-26.34 5.94,-7.56 14.28,-12.54 20.64,-12.54 2.52,0 4.44,0.9 4.44,2.82 0,1.98 -1.14,5.28 -1.98,6.24 -0.84,0.84 -1.68,0.6 -1.2,-0.18 z"
                   id="path2014" />
              </g>
            </g>
            <path
               id="path2018"
               d="m 47.321615,881.47288 v 7.51044 c 0,27.89569 -19.84889,45.1963 -47.07405966,45.1963 -28.43221034,0 -49.62233034,-21.18993 -49.62233034,-48.81744 0,-27.62751 21.19012,-48.54928 48.95181034,-48.54928 22.26279966,0 38.49074966,12.33845 44.52578966,28.16386 l -13.67967,3.75532 c -4.828,-10.72924 -15.15489,-18.37368 -30.71212966,-18.37368 -20.65359034,0 -34.46725034,15.95958 -34.46725034,34.8696 0,18.91021 13.41131,35.40613 35.8084803,35.40613 18.1053197,0 30.0416097,-10.86323 31.3826397,-26.68863 l -32.72386966,0.1336 v -12.6066 z m 38.3768,52.70674 c -19.0442,0 -33.52857,-15.15488 -33.52857,-35.54011 0,-20.25124 14.48437,-35.40614 33.52857,-35.40614 10.863231,0 19.178185,4.694 24.274545,11.9361 v -10.19271 h 13.94784 v 67.45948 h -13.94784 v -10.19271 c -5.09636,7.24208 -13.411314,11.93609 -24.274545,11.93609 z m 2.27991,-12.60661 c 12.338455,0 22.262805,-9.65618 22.262805,-22.9335 0,-13.14315 -9.92435,-22.79952 -22.262805,-22.79952 -12.87497,0 -21.99482,9.52219 -21.99482,22.79952 0,13.27732 9.11985,22.9335 21.99482,22.9335 z m 87.328425,-58.33964 c 19.0442,0 33.66255,15.1549 33.66255,35.40614 0,20.38523 -14.61835,35.54011 -33.66255,35.54011 -10.72924,0 -19.04419,-4.69401 -24.14055,-11.93609 v 10.19271 h -14.08202 v -97.90325 h 14.08202 v 40.63648 c 5.09636,-7.2421 13.41131,-11.9361 24.14055,-11.9361 z m -2.28011,58.33964 c 12.87498,0 21.99482,-9.65618 21.99482,-22.9335 0,-13.27733 -9.11984,-22.79952 -21.99482,-22.79952 -12.33843,0 -22.26279,9.65637 -22.26279,22.79952 0,13.27732 9.92436,22.9335 22.26279,22.9335 z m 58.8962,-45.86702 c 4.0235,-8.18096 11.9363,-13.00914 23.0677,-11.53394 v 13.14334 c -14.35019,-2.14592 -23.0677,5.09636 -23.0677,24.67689 v 30.44396 h -14.08182 v -67.45948 h 14.08182 z m 37.30394,-21.72646 c -4.96218,0 -8.85149,-3.75531 -8.85149,-8.71749 0,-4.694 3.88931,-8.58332 8.85149,-8.58332 4.96218,0 8.85148,3.88932 8.85148,8.58332 0,4.96218 -3.8893,8.71749 -8.85148,8.71749 z m -7.10811,78.45671 v -67.45948 h 13.94784 v 67.45948 z m 59.29857,1.74338 c -21.05595,0 -35.94248,-14.08182 -35.94248,-35.40613 0,-20.11706 13.81367,-35.54012 34.73544,-35.54012 21.86064,0 34.33326,15.1549 34.33326,34.19908 0,2.01175 -0.13361,3.62115 -0.40235,5.6327 h -54.85268 c 0.93888,11.1316 8.7175,19.0442 22.39699,19.0442 10.05871,0 16.36192,-4.96217 19.17836,-10.86323 l 12.87498,3.75532 c -4.15748,9.11966 -14.75253,19.17818 -32.32152,19.17818 z m -22.12881,-40.50229 41.44117,-0.13361 c -0.8045,-10.32689 -8.18097,-18.2395 -20.5194,-18.2395 -12.07029,0 -19.98289,8.7173 -20.92177,18.37369 z m 64.12675,38.75891 v -97.90325 h 14.08183 v 97.90325 z m 56.6161,1.74338 c -19.04419,0 -33.52838,-15.15488 -33.52838,-35.54011 0,-20.25124 14.48419,-35.40614 33.52838,-35.40614 10.86323,0 19.17838,4.694 24.27474,11.9361 v -10.19271 h 13.94784 v 67.45948 h -13.94784 v -10.19271 c -5.09636,7.24208 -13.41151,11.93609 -24.27474,11.93609 z m 2.2801,-12.60661 c 12.33845,0 22.26281,-9.65618 22.26281,-22.9335 0,-13.14315 -9.92436,-22.79952 -22.26281,-22.79952 -12.87497,0 -21.99481,9.52219 -21.99481,22.79952 0,13.27732 9.11984,22.9335 21.99481,22.9335 z m 156.95369,-83.01672 h 13.94784 v 93.87995 h -14.61835 v -68.66653 l -32.18754,45.06251 -32.05316,-45.06251 v 68.66653 h -14.61855 v -93.87995 h 13.94784 l 32.85805,47.20824 z m 58.89621,95.62333 c -21.05594,0 -35.94266,-14.08182 -35.94266,-35.40613 0,-20.11706 13.81385,-35.54012 34.73561,-35.54012 21.86065,0 34.33328,15.1549 34.33328,34.19908 0,2.01175 -0.13362,3.62115 -0.40236,5.6327 h -54.85268 c 0.93869,11.1316 8.71731,19.0442 22.39698,19.0442 10.05853,0 16.36194,-4.96217 19.17838,-10.86323 l 12.87497,3.75532 c -4.15767,9.11966 -14.75253,19.17818 -32.32152,19.17818 z m -22.12881,-40.50229 41.44118,-0.13361 c -0.80469,-10.32689 -8.18097,-18.2395 -20.51942,-18.2395 -12.07027,0 -19.98307,8.7173 -20.92176,18.37369 z m 117.7722,-59.14434 h 13.94783 v 97.90325 h -13.94783 v -10.19271 c -5.09636,7.24208 -13.41133,11.93609 -24.27456,11.93609 -19.04419,0 -33.52856,-15.15488 -33.52856,-35.54011 0,-20.25124 14.48437,-35.40614 33.52856,-35.40614 10.86323,0 19.1782,4.694 24.27456,11.9361 z m -21.99464,87.04002 c 12.33845,0 22.263,-9.65618 22.263,-22.9335 0,-13.14315 -9.92455,-22.79952 -22.263,-22.79952 -12.87497,0 -21.99481,9.52219 -21.99481,22.79952 0,13.27732 9.11984,22.9335 21.99481,22.9335 z m 80.89084,12.60661 c -21.05594,0 -35.94246,-14.08182 -35.94246,-35.40613 0,-20.11706 13.81365,-35.54012 34.73542,-35.54012 21.86064,0 34.33326,15.1549 34.33326,34.19908 0,2.01175 -0.13361,3.62115 -0.40235,5.6327 h -54.85268 c 0.93888,11.1316 8.7175,19.0442 22.39698,19.0442 10.05873,0 16.36193,-4.96217 19.17838,-10.86323 l 12.87497,3.75532 c -4.15748,9.11966 -14.75253,19.17818 -32.32152,19.17818 z m -22.12881,-40.50229 41.44118,-0.13361 c -0.8045,-10.32689 -8.18078,-18.2395 -20.51941,-18.2395 -12.07028,0 -19.98289,8.7173 -20.92177,18.37369 z m 71.50302,-39.6978 c -4.96237,0 -8.85168,-3.75531 -8.85168,-8.71749 0,-4.694 3.88931,-8.58332 8.85168,-8.58332 4.96218,0 8.85148,3.88932 8.85148,8.58332 0,4.96218 -3.8893,8.71749 -8.85148,8.71749 z m -7.1081,78.45671 v -67.45948 h 13.94785 v 67.45948 z m 41.59559,-56.73025 c 4.0233,-8.18096 11.9361,-13.00914 23.06749,-11.53394 v 13.14334 c -14.35018,-2.14592 -23.06749,5.09636 -23.06749,24.67689 v 30.44396 h -14.08202 v -67.45948 h 14.08202 z m 61.57828,58.47363 c -20.6534,0 -35.8083,-15.28887 -35.8083,-35.54011 0,-20.11707 15.1549,-35.40614 35.8083,-35.40614 20.6536,0 35.80848,15.28907 35.80848,35.40614 0,20.25124 -15.15488,35.54011 -35.80848,35.54011 z m 0,-12.74078 c 12.87498,0 22.12881,-9.79037 22.12881,-22.66535 0,-13.00896 -9.25383,-22.79932 -22.12881,-22.79932 -12.87478,0 -22.12881,9.79036 -22.12881,22.79932 0,12.87498 9.25403,22.66535 22.12881,22.66535 z m 70.29595,12.74078 c -15.95956,0 -28.43219,-9.52199 -31.78497,-20.5194 l 12.74079,-3.75514 c 2.41409,7.10811 9.79036,12.7408 19.44658,12.7408 8.5833,0 14.082,-4.29166 14.082,-9.11966 0,-4.15766 -2.6823,-6.3034 -8.7175,-8.04697 l -18.10533,-5.36452 c -8.98567,-2.68228 -16.09376,-7.64444 -16.09376,-17.30083 0,-10.72904 11.39975,-19.58053 25.74989,-19.58053 14.6184,0 25.2135,7.2421 29.237,17.03245 l -12.4727,3.62114 c -2.5482,-5.09636 -8.4491,-9.38801 -16.8984,-9.38801 -7.10793,0 -11.80194,4.15748 -11.80194,8.18097 0,3.35279 2.68226,5.23034 7.24204,6.70575 l 17.9714,5.23035 c 9.522,2.68226 17.7029,6.97392 17.7029,18.37367 0,12.07029 -11.6679,21.18993 -28.298,21.18993 z"
               inkscape:connector-curvature="0"
               style="fill:#222831;stroke-width:3.35285234" />
          </g>
        </g>
      </g>
    </g>
  </g>
</svg>
