<svg version="1.1" id="Layer_1" xmlns="http://www.w3.org/2000/svg" xmlns:xlink="http://www.w3.org/1999/xlink" x="0px" y="0px"
	 width="100%" viewBox="0 0 1175 1210" enable-background="new 0 0 1175 1210" xml:space="preserve">

<path fill="#266190" opacity="1.000000" stroke="none"
	d="
M1176.000000,695.531372
	C1155.258789,696.964539 1134.846436,694.109985 1114.947266,688.854919
	C1095.775879,683.791931 1077.552612,676.041870 1060.137695,666.222351
	C1041.873047,655.923767 1025.454468,643.334839 1010.706909,628.679871
	C996.069214,614.134033 983.508362,597.844849 973.247864,579.782227
	C964.605408,564.567932 957.606201,548.667480 952.447021,532.041321
	C947.990662,517.680115 945.385925,502.871552 943.813904,487.841064
	C943.014160,480.194366 943.321899,472.614258 942.997009,464.546326
	C940.663513,462.792419 938.623108,461.167297 936.726440,459.267548
	C901.719788,424.203918 866.670715,389.182617 831.658264,354.124695
	C829.818115,352.282104 827.476624,350.704437 827.333130,347.351746
	C828.062195,345.213684 829.490723,344.021698 830.777161,342.734650
	C866.659912,306.834930 902.546204,270.938721 938.462341,235.072464
	C939.950623,233.586258 941.238953,231.651886 944.096191,231.873505
	C944.623718,232.304825 944.792664,232.537308 945.143738,233.178345
	C946.043518,236.020615 945.907349,238.526215 945.909546,241.012375
	C945.929688,263.609375 945.948608,286.206451 945.897949,308.803314
	C945.886047,314.110657 945.192932,319.407867 945.631958,325.200012
	C946.455200,331.327972 944.929810,336.860138 944.798645,342.481567
	C944.589783,351.430634 945.487488,360.312897 945.796143,369.703857
	C944.913391,376.171021 945.914062,382.145447 945.913513,388.128387
	C945.911316,410.449707 945.882812,432.771088 945.928894,455.092346
	C945.942993,461.904541 946.104858,462.049805 952.989929,462.074280
	C966.315979,462.121674 979.642395,462.131500 992.968323,462.078278
	C1008.954529,462.014435 1024.937622,462.144257 1041.356323,462.599274
	C1042.069946,462.670807 1042.345337,462.714630 1042.999512,462.895752
	C1045.426880,464.289917 1045.415405,466.385071 1045.359131,468.361725
	C1045.082031,478.086212 1047.013916,487.449738 1049.272339,496.857452
	C1053.182861,513.147400 1060.166260,527.986755 1070.211670,541.211975
	C1086.677490,562.890137 1107.255249,579.411865 1133.527832,587.739136
	C1144.270874,591.144287 1155.291504,593.838623 1166.773804,593.706787
	C1169.720459,593.672974 1172.755005,594.088135 1175.741211,595.763855
	C1176.000000,629.020874 1176.000000,662.041809 1176.000000,695.531372
z">
<animate attributeName="opacity" dur="10s" repeatCount="indefinite"
         values="1;0;0;1" />
</path>
<path fill="#266190" opacity="1.000000" stroke="none"
	d="
M712.508057,233.213013
	C712.117737,201.407806 712.058777,169.750977 712.000549,138.094131
	C711.997314,136.325043 712.000122,134.555969 711.720520,132.763031
	C709.468079,146.260300 705.814453,159.257370 699.280151,171.304871
	C694.796204,179.572220 689.418945,187.194366 683.258728,194.362610
	C670.908325,208.733902 655.858276,219.206345 638.421082,226.244232
	C627.266907,230.746246 615.568237,233.687073 603.517517,233.902176
	C582.196167,234.282791 560.864197,234.067184 539.050659,233.993286
	C539.103210,231.627747 541.132324,231.485672 542.820923,231.044647
	C565.647217,225.083038 580.932556,210.621277 590.107605,189.233475
	C590.822754,187.566467 591.368164,185.796860 593.158386,184.350739
	C596.599182,183.319443 599.798035,183.620392 602.931702,183.498367
	C634.929321,182.252548 665.093323,153.103943 664.396179,117.450912
	C664.005432,97.465721 664.342834,77.466614 664.316162,57.473824
	C664.307373,50.863415 664.146790,50.694431 657.655701,50.685307
	C638.329346,50.658146 619.001648,50.528961 599.676880,50.710720
	C566.722900,51.020660 540.618042,72.115204 533.499084,103.905426
	C532.398071,108.822296 532.781189,113.866753 531.965698,119.207100
	C531.303894,121.909775 529.270020,122.424797 527.428711,123.115128
	C503.512970,132.081360 488.762360,149.109116 482.754517,173.841095
	C482.637085,174.324417 482.573914,174.825424 482.405640,175.291153
	C482.025940,176.342026 481.905823,177.909973 480.524048,177.853867
	C478.825378,177.784866 478.760620,176.065689 478.637909,174.808563
	C478.397247,172.343613 478.133881,169.836578 479.650635,167.236755
	C479.958710,148.813568 479.850830,130.653397 480.032166,112.496117
	C480.273926,88.288193 488.739075,66.955269 502.871246,47.539528
	C515.343994,30.403677 531.752747,18.306501 550.773743,9.640858
	C557.691528,6.489239 565.088989,4.266523 572.676453,3.009625
	C573.657349,2.847141 574.703796,2.967009 575.082764,1.399630
	C620.687561,1.000000 666.375122,1.000000 712.531372,1.000000
	C715.230957,2.139505 717.167542,3.627225 718.952881,5.415245
	C754.179016,40.694328 789.444214,75.934418 824.676880,111.206985
	C826.406311,112.938385 828.547119,114.461494 828.672424,117.614601
	C828.035950,119.600998 826.764526,120.711403 825.593750,121.882652
	C789.351074,158.140442 753.106567,194.396484 716.843140,230.633621
	C716.019165,231.457001 715.190125,232.277863 713.880127,233.077133
	C713.316650,233.278931 713.078064,233.320160 712.508057,233.213013
z">
<animate attributeName="opacity" dur="10s" repeatCount="indefinite"
         values="1;0;0;1" /></path>
<path fill="#283241" opacity="1.000000" stroke="none"
	d="
M827.977417,118.245697
	C827.953064,115.326920 825.761963,114.268433 824.301880,112.805542
	C788.708618,77.146378 753.074341,41.528065 717.452332,5.897569
	C716.042664,4.487632 714.680542,3.030261 713.148132,1.297506
	C819.687561,1.000000 926.375183,1.000000 1033.531372,1.000000
	C1034.369385,1.421753 1034.559570,1.912773 1034.472412,2.865042
	C1032.961182,5.488173 1030.489990,5.620872 1028.301270,6.300039
	C986.136780,19.383986 959.080688,47.105793 947.459290,89.764587
	C946.051819,94.930862 945.451233,100.193161 945.550293,105.570999
	C945.758789,116.885971 945.293579,128.208801 945.869141,139.961487
	C944.965210,145.375763 945.885498,150.339722 945.895874,155.307800
	C945.943787,178.241943 945.936768,201.176285 945.899231,224.110504
	C945.895203,226.587448 946.078064,229.124847 944.319092,231.713562
	C943.781433,232.027740 943.600769,232.007950 943.147583,231.996002
	C940.456909,232.537674 939.240112,230.683868 937.889282,229.335602
	C902.124084,193.637756 866.399109,157.899704 830.678650,122.157135
	C829.626282,121.104141 828.494629,120.092949 827.977417,118.245697
z">
<animate attributeName="opacity" dur="10s" repeatCount="indefinite"
         values="1;0;0;1" />
</path>
<path fill="#E2E8F0" opacity="1.000000" stroke="none"
	d="
M944.259888,370.351166
	C942.803284,355.647003 942.606201,341.263794 944.019531,326.424683
	C949.115723,280.354736 991.315308,239.384277 1038.082153,231.804169
	C1040.208496,231.459518 1042.397217,231.497986 1044.860840,230.641815
	C1054.130127,229.899231 1062.997803,230.105820 1072.280762,230.463425
	C1084.840576,232.610748 1096.860718,235.163406 1108.053711,240.583603
	C1143.184448,257.595764 1165.557861,284.864655 1174.356201,323.061493
	C1175.067871,326.151550 1174.580811,329.361359 1175.756226,332.703430
	C1176.000000,342.687561 1176.000000,352.375122 1176.000000,362.531342
	C1174.140747,365.153290 1175.236084,367.813202 1174.800415,370.214630
	C1170.896973,391.728760 1161.537109,410.518982 1146.929443,426.748566
	C1132.097656,443.226929 1114.111084,454.729919 1092.884644,461.149750
	C1086.516235,463.075836 1079.910522,463.896942 1073.012817,465.398315
	C1064.803711,466.194153 1056.997803,465.786682 1049.197266,465.772766
	C1047.698242,465.770081 1046.211060,465.550018 1044.584229,464.342407
	C1044.253784,464.010529 1044.139282,463.832428 1044.040649,463.870789
	C1021.779602,462.991699 1002.696350,454.054291 985.711060,440.555725
	C966.312500,425.139374 952.775818,405.472992 945.793335,381.530182
	C944.764709,378.003174 944.792114,374.307343 944.259888,370.351166
z"><animate attributeName="opacity" dur="13s" repeatCount="indefinite"
           values="1;0;1" /></path>
<path fill="#266190" opacity="1.000000" stroke="none"
	d="
M1002.643188,963.475830
	C1024.999390,963.076904 1047.480225,962.221313 1069.873047,963.261658
	C1087.874512,964.098083 1104.820557,970.017212 1120.257935,979.740723
	C1128.759766,985.095703 1136.964233,990.961914 1143.678467,998.338501
	C1159.113525,1015.295959 1170.541138,1034.515747 1174.115967,1057.666382
	C1174.199707,1058.208618 1174.826294,1058.667236 1175.599854,1059.082397
	C1176.000000,1104.354248 1176.000000,1149.708496 1176.000000,1195.531372
	C1134.865356,1196.000000 1093.729492,1196.195068 1052.596802,1195.909546
	C1034.713257,1195.785400 1018.176086,1190.139526 1002.752380,1181.214722
	C993.827515,1176.050171 985.530457,1170.033203 978.225769,1162.718262
	C964.707703,1149.181274 955.058289,1133.300781 949.041382,1115.125000
	C946.734619,1108.156860 945.443970,1101.025757 944.098938,1093.485229
	C943.257385,1092.579102 942.678894,1091.904663 942.622864,1091.075073
	C942.003479,1081.897705 941.108643,1072.710205 943.540527,1063.223633
	C943.892395,1048.406494 943.895569,1033.953369 944.010620,1019.012573
	C945.980225,1018.936523 946.153259,1020.526489 946.475098,1021.966125
	C952.414307,1048.530884 968.382019,1066.077759 994.048279,1074.916748
	C994.359863,1075.024048 994.639648,1075.215576 995.202515,1075.649170
	C996.850464,1078.012329 996.643005,1080.404053 996.526306,1082.702271
	C995.898315,1095.071289 1000.472290,1105.839355 1006.765198,1116.043091
	C1016.924255,1132.515869 1032.132690,1141.545166 1050.786377,1145.051636
	C1055.978027,1146.027588 1061.351074,1146.375122 1066.670410,1146.397461
	C1084.991943,1146.474243 1103.313965,1146.438232 1121.635864,1146.420288
	C1128.288452,1146.413818 1128.407349,1146.296143 1128.420776,1139.796997
	C1128.461670,1119.976196 1128.048828,1100.146606 1128.568481,1080.337280
	C1128.976318,1064.782593 1124.109863,1051.147339 1114.938599,1039.059448
	C1103.996826,1024.638062 1089.370361,1015.978149 1071.267944,1013.579712
	C1066.816772,1012.989929 1062.276367,1014.227722 1057.495850,1012.868713
	C1055.099121,1011.260864 1054.608154,1008.880615 1053.689331,1006.780640
	C1044.541626,985.872925 1029.314453,971.946533 1007.064880,966.035522
	C1005.477478,965.613770 1003.778198,965.350830 1002.643188,963.475830
z"><animate attributeName="opacity" dur="13s" repeatCount="indefinite"
           values="1;0;1" /></path>
<path fill="#BEE3F8" opacity="1.000000" stroke="none"
	d="
M1033.729492,3.397133
	C1033.991455,2.575697 1034.046265,2.126005 1034.050537,1.338156
	C1080.095215,1.000000 1126.190552,1.039546 1172.285400,0.914183
	C1175.479492,0.905496 1176.081665,1.727294 1176.074463,4.774196
	C1175.966675,50.203495 1176.000000,95.633125 1176.000000,141.531342
	C1175.332397,142.564774 1174.645386,143.096786 1173.347046,143.377808
	C1157.512085,143.904572 1142.712036,140.780106 1127.855713,135.687302
	C1115.395752,130.374008 1103.543335,124.819008 1092.803833,117.060501
	C1070.272583,100.783066 1053.558472,79.975166 1043.095337,54.191437
	C1042.407349,52.496117 1041.740479,50.793198 1040.658691,48.838684
	C1035.659912,36.115574 1033.616333,23.160465 1032.386230,10.040254
	C1032.183350,7.876856 1032.289673,5.703890 1033.729492,3.397133
z"><animate attributeName="opacity" dur="13s" repeatCount="indefinite"
           values="1;0;1" /></path>
<path fill="#378ACD" opacity="1.000000" stroke="none"
	d="
M1044.179443,464.447632
	C1053.867920,464.003174 1063.481934,463.995850 1073.563721,463.932190
	C1084.576172,462.827881 1095.107422,461.882263 1105.742798,461.993988
	C1126.159180,462.208435 1146.579224,462.038086 1166.997803,462.075684
	C1169.790039,462.080841 1172.677734,461.717712 1175.614502,463.682495
	C1176.000000,507.687561 1176.000000,551.375122 1176.000000,595.531372
	C1146.495605,595.582764 1119.198975,587.590332 1095.877197,569.454407
	C1076.611084,554.472412 1061.536743,535.805847 1052.745239,512.382507
	C1049.229736,503.016144 1046.912354,493.438293 1044.864624,483.815460
	C1043.573975,477.750153 1043.135010,471.243286 1044.179443,464.447632
z">
  <animate attributeName="opacity" dur="10s" repeatCount="indefinite"
           values="1;0;0;1" />
</path>
<path fill="#2C3749" opacity="1.000000" stroke="none"
	d="
M943.602783,1062.603516
	C943.911255,1072.634277 943.933350,1082.408936 943.922363,1092.662231
	C942.015320,1100.949951 940.762207,1108.890137 938.047668,1116.517456
	C928.441650,1143.508545 911.197632,1164.139282 886.633850,1178.685547
	C868.400635,1189.483032 848.699524,1194.331787 827.425476,1194.106567
	C790.772461,1193.718384 754.111938,1193.924316 717.455627,1194.106812
	C713.020386,1194.128906 711.877563,1192.912598 711.896301,1188.519409
	C712.067383,1148.363770 711.856201,1108.206421 712.093323,1068.051514
	C712.161316,1056.547363 715.495911,1045.488037 719.633667,1034.844727
	C725.652039,1019.363892 735.073608,1006.090820 746.969543,994.458191
	C762.903137,978.877319 781.623047,968.426575 803.433472,964.177734
	C827.685181,959.453369 851.494995,961.094116 874.454590,971.147278
	C900.382568,982.500122 919.388794,1001.175171 932.396240,1025.982056
	C938.329834,1037.298462 941.885925,1049.561646 943.602783,1062.603516
z"><animate attributeName="opacity" dur="13s" repeatCount="indefinite"
           values="1;0;1" /></path>
<path fill="#E2E8F0" opacity="1.000000" stroke="none"
	d="
M711.713257,820.327515
	C714.071289,811.136902 715.625000,802.189758 718.955261,793.667847
	C724.222229,780.190125 731.355469,767.920471 741.214111,757.247742
	C751.253235,746.379700 762.477966,737.039673 775.866150,730.632263
	C791.345459,723.224121 807.547485,719.146912 824.933350,718.818726
	C844.700012,718.445435 863.357483,722.088989 880.859924,731.029785
	C901.326965,741.485046 917.237183,756.890381 929.011353,776.685547
	C942.176697,798.819641 946.284241,823.040894 943.749268,848.056885
	C941.075623,874.440735 930.053162,897.377441 911.135986,916.590942
	C896.310791,931.648376 878.883728,941.885437 858.841248,947.526306
	C843.397217,951.872986 827.502380,951.937561 811.518677,950.096741
	C789.738464,947.588440 770.570740,938.876770 753.936401,925.212585
	C734.803406,909.495850 721.780579,889.237427 715.235596,865.245300
	C713.942383,860.504578 712.356262,855.527283 712.459839,850.191162
	C711.410767,849.498535 710.786560,848.851868 710.719849,848.026917
	C709.980103,838.887451 709.002991,829.736877 711.713257,820.327515
z"><animate attributeName="opacity" dur="13s" repeatCount="indefinite"
           values="1;0;1" /></path>
<path fill="#378ACD" opacity="1.000000" stroke="none"
	d="
M596.249146,835.668579
	C589.306152,842.386963 582.628845,848.887695 576.038330,855.475342
	C544.341309,887.158081 512.667542,918.864136 480.971039,950.576355
	C479.228760,949.655151 480.044128,948.158203 480.043396,947.035583
	C479.995392,872.559570 480.028503,798.083557 479.915314,723.607727
	C479.909698,719.908325 480.781128,718.904358 484.561523,718.910767
	C559.703674,719.037842 634.846069,719.014832 710.448425,719.077454
	C711.436462,721.305054 709.910461,722.537964 708.650452,723.800049
	C671.726501,760.782898 634.770996,797.734375 597.798828,834.669067
	C597.445923,835.021667 597.006287,835.272339 596.249146,835.668579
z"><animate attributeName="opacity" dur="13s" repeatCount="indefinite"
           values="0;1;0" /></path>
<path fill="#378ACD" opacity="1.000000" stroke="none"
	d="
M712.103027,233.523987
	C712.176514,233.064651 712.649841,233.030472 712.881714,232.979950
	C715.516602,232.467529 716.740845,234.293564 718.098022,235.648499
	C753.863403,271.353363 789.596069,307.091034 825.316040,342.841309
	C826.368530,343.894775 827.487976,344.920593 827.920532,346.799438
	C828.268433,349.555573 830.285767,350.714630 831.774048,352.204895
	C867.379211,387.857208 903.014526,423.479401 938.636841,459.114594
	C940.044922,460.523193 941.379028,462.005768 942.871277,463.768433
	C911.014343,464.059814 879.033752,464.036682 846.594116,464.047241
	C840.685242,467.357300 834.755798,465.453735 828.537964,465.635162
	C822.240784,465.747070 816.386780,466.761932 810.325439,464.441040
	C779.161377,464.064392 748.344910,463.920258 717.530640,464.119598
	C712.861389,464.149841 711.892944,462.804871 711.901672,458.363586
	C712.049072,383.570374 712.019775,308.776794 712.103027,233.523987
z"><animate attributeName="opacity" dur="13s" repeatCount="indefinite"
           values="0;1;0" /></path>
<path fill="#E2E8F0" opacity="1.000000" stroke="none"
	d="
M479.574158,166.825241
	C479.937866,170.286118 479.937866,173.599792 479.937866,176.913467
	C486.574768,148.879639 502.397644,129.364426 530.733276,120.564911
	C532.667053,117.789238 535.408813,117.625206 538.018616,117.146545
	C546.595886,115.573441 555.261353,116.158249 563.896362,116.114792
	C572.875732,116.069595 581.859497,115.911423 590.834656,116.205956
	C595.829529,116.369873 597.678223,117.758553 597.679199,122.236488
	C597.683044,140.174973 598.979736,158.142944 596.870117,176.043091
	C596.524658,178.973923 596.201172,182.046829 593.500916,184.655869
	C586.507080,204.885437 573.934387,219.513474 554.827759,228.399734
	C549.836914,230.720932 544.569214,232.119049 538.922791,233.688644
	C520.716736,236.220901 502.776855,234.301437 484.903137,235.105087
	C480.509857,235.302628 479.826141,233.830475 479.901855,229.869507
	C480.158447,216.440140 479.999756,203.002823 479.706024,189.491501
	C476.790100,200.787094 471.958160,210.950195 463.433472,219.063202
	C452.561127,229.410477 439.819153,234.724396 424.603149,235.143433
	C407.051544,235.626846 392.426422,229.739288 380.670288,217.055267
	C371.541656,207.206146 366.309418,195.539017 365.912109,181.761292
	C365.562683,169.642090 367.393829,158.327637 373.951996,147.838623
	C382.455139,134.238770 394.303101,125.235550 409.913239,122.118828
	C431.882935,117.732353 451.321411,123.042908 466.516632,140.124832
	C473.191254,147.628189 477.792175,156.483185 479.574158,166.825241
z"><animate attributeName="opacity" dur="13s" repeatCount="indefinite"
           values="0;1;0" /></path>
<path fill="#285982" opacity="1.000000" stroke="none"
	d="
M569.610474,623.770508
	C574.971130,632.071716 580.947693,639.504761 585.125977,648.141907
	C592.565674,663.521057 596.405701,679.622742 596.130676,696.756836
	C596.072144,700.399719 594.816711,701.039612 591.511169,701.111511
	C564.198669,701.705505 540.813232,691.701721 519.509644,674.899902
	C507.997925,667.231262 500.356873,656.572327 493.903503,645.046570
	C485.084015,629.294922 479.349762,612.570923 479.544098,594.222839
	C479.556580,593.044800 479.452759,591.886353 478.397888,590.629639
	C476.886383,587.464233 474.326508,587.507751 471.790863,587.554077
	C449.772766,587.956177 430.006958,595.059143 412.073975,607.626648
	C406.456879,611.563110 401.373535,616.097534 396.609589,621.024170
	C395.030884,622.656860 393.537659,624.653564 390.500427,624.236572
	C385.907928,611.019348 381.899384,597.862427 382.333466,584.047546
	C382.689423,572.719116 383.974579,561.377686 388.807648,550.829956
	C390.129669,547.944824 390.252319,545.319397 388.071442,542.592163
	C375.367157,526.704956 367.478088,508.794067 364.740662,488.501282
	C363.999023,483.003540 364.355804,477.598145 363.957153,472.165680
	C363.786621,469.841980 364.698090,469.037262 367.080078,468.917023
	C382.213837,468.153168 396.531219,471.567474 410.438141,477.139099
	C421.064331,481.396332 430.714844,487.287872 439.677429,494.946198
	C446.110138,497.617889 449.992615,502.832581 453.999176,507.587708
	C469.431519,525.903198 478.349304,547.072632 480.610077,570.997620
	C480.885803,573.915283 479.452728,576.998291 481.631561,580.035767
	C483.381195,582.967773 486.161987,582.352173 488.865784,582.941833
	C492.764954,584.789307 496.671082,584.304871 500.415100,584.851135
	C525.585693,588.523193 546.875671,599.941650 565.068054,617.458374
	C566.854980,619.178955 568.581482,621.000977 569.610474,623.770508
z"><animate attributeName="opacity" dur="13s" repeatCount="indefinite"
           values="0;1;0" /></path>
<path fill="#266190" opacity="1.000000" stroke="none"
	d="
M596.253418,835.993835
	C596.269958,833.441467 598.290710,832.280396 599.781860,830.787292
	C635.452393,795.069641 671.152771,759.381775 706.842468,723.683228
	C708.136597,722.388733 709.378784,721.042297 710.776855,719.426392
	C712.987427,720.604431 711.940063,722.776306 711.944763,724.579346
	C712.027039,756.071594 712.011414,787.564026 712.051392,819.522766
	C712.056091,829.684021 712.026550,839.379028 712.041321,849.542480
	C712.085632,883.399841 712.085632,916.788818 712.085632,950.177734
	C711.685486,950.410645 711.285339,950.643494 710.885193,950.876404
	C672.777893,912.631409 634.670654,874.386414 596.253418,835.993835
z"><animate attributeName="opacity" dur="13s" repeatCount="indefinite"
           values="0;1;0" /></path>
<path fill="#E2E8F0" opacity="1.000000" stroke="none"
	d="
M623.026306,1030.999268
	C635.510986,1030.999146 647.500854,1031.086670 659.487671,1030.933838
	C662.277771,1030.898315 663.096008,1031.614990 663.068909,1034.469727
	C662.925293,1049.620850 663.559387,1064.799316 662.868286,1079.920166
	C661.938293,1100.268311 654.447449,1118.157471 638.766052,1131.597168
	C627.609863,1141.158569 614.632812,1146.891602 599.522949,1148.178589
	C582.764343,1149.606079 566.042053,1148.390991 549.319946,1149.040405
	C546.801331,1149.138428 545.914124,1148.517090 545.934265,1145.795166
	C546.062683,1128.479004 545.243896,1111.117920 546.239868,1093.858276
	C547.027893,1080.202148 552.515747,1067.743896 561.425415,1057.056152
	C571.098633,1045.452271 583.158020,1037.504395 597.782410,1033.682861
	C605.867371,1031.570190 614.173279,1030.903687 623.026306,1030.999268
z"><animate attributeName="opacity" dur="13s" repeatCount="indefinite"
           values="0;1;0" /></path>
<path fill="#266190" opacity="1.000000" stroke="none"
	d="
M294.000000,3.000378
	C302.436035,3.471336 310.395477,2.235494 318.338074,3.878976
	C335.074585,7.342122 348.364044,16.135204 356.750671,30.797155
	C368.927795,52.085865 368.702026,73.841202 355.117310,94.595535
	C343.995697,111.586754 327.724152,119.746986 307.457336,119.999680
	C284.320770,120.288155 266.842377,110.285339 255.163147,90.512161
	C250.650223,82.871651 247.871964,74.486702 247.951035,65.300873
	C248.114578,46.302349 248.169647,27.298834 247.878448,8.303361
	C247.807861,3.697740 249.270706,2.818829 253.502090,2.902867
	C266.830109,3.167570 280.166718,3.000391 294.000000,3.000378
z"><animate attributeName="opacity" dur="13s" repeatCount="indefinite"
           values="0;1;0" /></path>
<path fill="#E1E8F0" opacity="1.000000" stroke="none"
	d="
M1002.156250,963.115051
	C1012.200684,965.724976 1021.618958,968.906616 1029.860352,974.762146
	C1042.859131,983.997986 1051.985229,996.134216 1057.014648,1011.724731
	C1061.295166,1016.658813 1061.368896,1022.587097 1061.608765,1028.082153
	C1062.275879,1043.368286 1061.908447,1058.683594 1061.804199,1073.987427
	C1061.778320,1077.779053 1060.343262,1080.684937 1056.104126,1080.680176
	C1038.490601,1080.660522 1020.853882,1081.870728 1003.273254,1079.909668
	C1000.652161,1079.617065 997.955505,1079.255981 995.572876,1076.919189
	C966.670898,1067.806641 950.147949,1048.371582 944.323853,1018.901001
	C944.081421,1000.924927 944.126526,983.324036 943.918945,965.726135
	C943.881958,962.590515 944.748901,961.893372 947.778564,961.924438
	C963.384827,962.084229 978.993774,961.950928 994.601013,962.047729
	C996.988098,962.062561 999.371094,962.743530 1002.156250,963.115051
z"><animate attributeName="opacity" dur="13s" repeatCount="indefinite"
           values="0;1;0" /></path>
<path fill="#28577F" opacity="1.000000" stroke="none"
	d="
M867.992432,669.600464
	C857.635559,674.377319 847.059692,677.170288 835.915222,677.836182
	C820.288330,678.769836 805.078918,677.104248 790.557800,670.960266
	C788.495544,670.087708 787.043945,670.786133 785.634399,671.970825
	C771.319336,684.001953 754.489380,690.766357 736.538086,694.848450
	C729.456421,696.458801 722.060120,696.205933 714.758911,696.082214
	C712.035400,696.036011 712.023560,694.504639 711.934998,692.517029
	C711.034119,672.302734 716.673889,653.729919 726.400269,636.311096
	C729.816956,630.192322 734.170410,624.596741 738.144836,618.404785
	C740.620239,613.538574 744.635681,610.449524 748.352417,607.203674
	C766.665955,591.210388 787.856567,581.469910 812.107422,578.768799
	C817.212952,578.200073 822.391541,577.834900 827.821289,579.373901
	C830.825012,584.663879 829.670776,590.307373 830.315735,595.653320
	C833.413208,621.328186 843.880737,643.264832 862.179199,661.525391
	C864.476135,663.817566 867.467529,665.666870 867.992432,669.600464
z"><animate attributeName="opacity" dur="13s" repeatCount="indefinite"
           values="0;1;0" /></path>
<path fill="#378ACC" opacity="1.000000" stroke="none"
	d="
M247.248962,857.249207
	C266.458771,838.041138 285.490448,819.153809 304.307983,800.055481
	C307.465424,796.851013 309.224182,796.509155 312.587555,799.932129
	C337.677979,825.466064 362.953613,850.818726 388.288757,876.110413
	C390.696808,878.514282 390.925049,879.725708 388.373505,882.256775
	C362.480194,907.940491 336.710052,933.748779 310.986389,959.602722
	C308.826172,961.773804 307.600586,962.293823 305.145508,959.780273
	C292.928467,947.271667 280.041901,935.390137 268.241608,922.508667
	C255.541046,908.644409 241.911026,895.740906 228.714371,882.394714
	C225.780853,879.428040 226.269409,877.979370 228.931732,875.462952
	C235.101578,869.631042 240.994064,863.505615 247.248962,857.249207
z"
>
<animate attributeName="opacity" dur="10s" repeatCount="indefinite"
         values="1;0;0;1" /></path>
<path fill="#BEE3F8" opacity="1.000000" stroke="none"
	d="
M389.293030,13.207459
	C402.230469,3.642225 416.827698,1.165524 431.767670,3.227149
	C448.638153,5.555181 462.073090,14.327025 471.566040,28.946442
	C479.548065,41.238995 481.598419,54.846531 479.781677,68.727798
	C477.562256,85.686195 468.582489,98.923828 454.110291,108.546158
	C441.831238,116.710274 428.207825,118.486198 414.338287,116.783951
	C397.689911,114.740631 384.571716,105.919502 374.955994,91.993584
	C366.202911,79.317009 364.271606,64.927223 366.270599,50.414295
	C368.365967,35.202053 376.273285,22.602564 389.293030,13.207459
z"><animate attributeName="opacity" dur="13s" repeatCount="indefinite"
           values="0;1;0" /></path>
<path fill="#BEE3F8" opacity="1.000000" stroke="none"
	d="
M283.059875,125.991928
	C295.487152,119.551819 308.523132,119.211166 321.094452,122.266365
	C344.466034,127.946335 358.857727,143.765823 363.785553,166.986969
	C369.656189,194.650864 353.380127,223.546188 326.310272,232.140778
	C306.174713,238.533737 287.298981,235.786926 270.479462,222.054718
	C254.009750,208.608154 248.329910,190.801910 250.196060,170.514465
	C251.336792,158.113037 256.998291,147.061386 265.634277,137.941818
	C270.434845,132.872467 276.289551,129.000351 283.059875,125.991928
z"><animate attributeName="opacity" dur="13s" repeatCount="indefinite"
           values="0;1;0" /></path>
<path fill="#E2E8F0" opacity="1.000000" stroke="none"
	d="
M126.750374,276.750366
	C114.367416,289.135437 102.120857,301.160522 90.186295,313.487610
	C87.412498,316.352692 86.134155,315.868652 83.656258,313.332062
	C72.248032,301.653656 60.184101,290.586731 49.197430,278.532959
	C35.642769,263.661804 20.973969,249.930573 6.953818,235.543579
	C5.006356,233.545166 4.867999,232.527466 6.917630,230.489349
	C32.788952,204.763077 58.592396,178.968216 84.311691,153.089981
	C86.788498,150.597855 88.272682,150.633667 90.729561,153.104309
	C116.338669,178.856949 142.015564,204.542740 167.803696,230.115936
	C170.243286,232.535172 169.929489,233.707916 167.695862,235.909241
	C154.049942,249.357666 140.549393,262.953583 126.750374,276.750366
z"><animate attributeName="opacity" dur="13s" repeatCount="indefinite"
           values="0;1;0" /></path>
<path fill="#266190" opacity="1.000000" stroke="none"
	d="
M827.659302,464.393799
	C833.692505,464.038605 839.437195,464.034973 845.658447,464.056152
	C853.533142,465.753113 860.997986,467.133514 868.205627,469.596008
	C892.952209,478.050934 912.508789,493.609467 926.567261,515.227722
	C938.358704,533.359985 944.941528,553.639648 944.080078,575.796021
	C943.957703,578.944031 943.290588,580.270935 939.918396,580.063110
	C935.611450,579.797668 931.275635,580.000916 926.485229,580.007080
	C923.857544,580.772949 921.743591,580.205383 919.620850,579.796448
	C872.313293,570.683105 835.866028,533.466858 827.755920,485.953064
	C827.503296,484.472870 827.280701,483.002228 826.653564,481.182739
	C826.332703,475.405334 825.251160,469.993683 827.659302,464.393799
z"><animate attributeName="opacity" dur="13s" repeatCount="indefinite"
           values="0;1;0" /></path>
<path fill="#BEE3F8" opacity="1.000000" stroke="none"
	d="
M827.483215,464.025269
	C827.958496,469.657074 827.969177,475.271912 827.926575,481.338684
	C827.418884,496.484772 822.466919,509.929932 815.260010,522.382690
	C797.366882,553.300293 770.998352,572.834045 735.657654,579.714417
	C734.033875,580.030579 732.420349,580.564209 730.360474,580.025146
	C724.993347,579.956299 719.992126,579.858093 715.002258,580.051941
	C712.568420,580.146545 712.011719,579.321472 711.940308,576.965149
	C711.150391,550.920898 719.443481,527.844971 735.172302,507.445648
	C749.545166,488.804932 768.040527,475.686859 790.672607,468.776855
	C796.842163,466.893127 803.029053,464.815918 809.798828,464.466553
	C815.657654,464.067169 821.338074,464.037750 827.483215,464.025269
z"><animate attributeName="opacity" dur="13s" repeatCount="indefinite"
           values="0;1;0" /></path>
<path fill="#BEE3F8" opacity="1.000000" stroke="none"
	d="
M867.975708,670.291748
	C861.771912,662.752197 854.531677,656.631775 849.117737,648.804810
	C838.132629,632.923706 831.099060,615.630737 828.880493,596.372314
	C828.288940,591.237488 827.837036,586.137817 828.049561,580.522949
	C829.883545,577.979919 832.359558,578.396851 834.601501,578.476135
	C858.145630,579.307983 879.538818,586.488464 898.557068,600.476929
	C905.784729,605.793152 912.577881,611.584656 917.814453,619.497070
	C927.347656,631.286377 934.626892,643.846680 939.069031,658.021545
	C942.610291,669.321594 944.476624,680.784485 944.099976,692.660278
	C944.002625,695.732178 942.883667,696.009644 940.310669,696.057739
	C913.767517,696.553711 890.428040,688.010681 869.870850,671.432129
	C869.385986,671.041077 868.707947,670.889587 867.975708,670.291748
z"><animate attributeName="opacity" dur="13s" repeatCount="indefinite"
           values="0;1;0" /></path>
<path fill="#BEE3F8" opacity="1.000000" stroke="none"
	d="
M390.009644,624.339966
	C392.506775,624.357361 393.229156,622.299561 394.416779,621.069641
	C416.341644,598.364563 442.919159,586.286560 474.611145,585.812195
	C476.943329,585.777283 479.538849,585.304504 479.105957,589.511719
	C481.017914,596.544250 480.122284,603.202026 478.867157,609.658813
	C474.258057,633.369629 463.215088,653.728149 445.715973,670.969971
	C444.292328,672.218323 443.212494,673.304626 441.323303,673.760559
	C425.765076,687.585571 407.753418,695.803894 387.865509,699.877441
	C380.961395,701.291626 373.766571,701.278015 366.645233,701.069885
	C364.314972,701.001770 364.018311,700.111023 363.956421,698.110352
	C363.305908,677.089722 368.745483,657.794067 379.507202,639.751343
	C382.658844,634.467407 386.646942,629.856506 390.009644,624.339966
z"><animate attributeName="opacity" dur="13s" repeatCount="indefinite"
           values="0;1;0" /></path>
<path fill="#2D3849" opacity="1.000000" stroke="none"
	d="
M918.107910,619.438232
	C911.950073,614.987366 907.096008,608.824646 900.891174,604.066162
	C879.664612,587.787292 855.774231,579.671143 828.561523,580.037964
	C794.527710,578.664062 766.533081,591.054199 742.994019,614.481750
	C741.714600,615.755127 740.722290,617.394043 738.523804,618.013794
	C734.201599,613.249023 733.764771,607.128357 732.426575,601.458252
	C730.840759,594.738586 729.578247,587.866577 729.993774,580.395630
	C732.599915,577.874207 735.872803,578.222717 738.850647,577.579590
	C783.092041,568.024109 819.930542,531.959778 827.520691,481.988770
	C830.037781,486.109680 829.955994,490.978729 831.239319,495.521515
	C836.180908,513.014526 844.339172,528.616577 856.538635,542.301147
	C875.105957,563.128967 898.282410,574.918396 925.758972,579.727539
	C926.368469,593.634583 923.256531,606.559448 918.107910,619.438232
z"><animate attributeName="opacity" dur="13s" repeatCount="indefinite"
           values="1;0;1" /></path>
<path fill="#BEE3F8" opacity="1.000000" stroke="none"
	d="
M489.340302,584.316162
	C487.066376,584.165894 485.147125,584.086182 483.233612,584.158447
	C481.565338,584.221436 480.910919,583.465271 480.935577,581.463013
	C478.891785,575.975708 480.120056,570.760193 480.906891,565.833191
	C485.251038,538.631348 498.279785,515.990845 518.139160,497.122314
	C518.748413,496.543365 519.445068,496.106934 520.591675,496.113159
	C536.660095,482.527039 555.141174,474.262512 575.461731,470.130280
	C581.015747,469.000885 586.836670,468.591187 592.636902,468.914886
	C595.061890,469.050232 596.044373,469.373444 596.077209,472.151367
	C596.252319,486.946350 592.764282,500.846100 587.288269,514.524841
	C583.051086,525.109131 576.481201,534.076172 569.974854,543.561035
	C569.113159,544.808105 568.558655,545.897522 567.532593,547.099609
	C549.820740,566.519958 528.466187,578.805786 503.007324,583.872559
	C498.594727,584.750732 494.182159,585.358093 489.340302,584.316162
z"><animate attributeName="opacity" dur="8s" repeatCount="indefinite"
           values="1;0;1" /></path>
<path fill="#2C3849" opacity="1.000000" stroke="none"
	d="
M1118.223389,797.666138
	C1118.004028,818.340149 1118.002441,838.718079 1118.002930,859.567139
	C1119.373413,862.441711 1117.344238,863.471252 1115.949463,864.356384
	C1107.087036,869.980286 1099.712402,877.057190 1094.020874,885.904907
	C1092.937988,887.588196 1091.455811,889.043579 1088.662842,888.550354
	C1069.092285,888.492798 1049.939697,888.493896 1030.367188,888.493652
	C1027.412720,888.852722 1025.336304,888.098450 1023.940674,885.888611
	C1018.145813,876.713196 1010.420227,869.537964 1001.249084,863.835144
	C1000.116638,863.130920 999.115845,862.226562 998.903442,860.439026
	C998.991028,839.672424 998.994019,819.273071 998.993286,798.400452
	C998.504883,795.825378 1000.102783,794.901367 1001.436279,794.083862
	C1011.034668,788.199585 1018.808655,780.513184 1024.742920,770.947083
	C1025.349365,769.969421 1026.152344,769.108765 1027.689941,768.890137
	C1048.045898,769.000793 1068.058838,769.000427 1088.541016,769.000488
	C1091.075317,767.654968 1092.188354,769.303345 1092.990234,770.588684
	C1099.036987,780.281006 1106.926392,788.077393 1116.595337,794.127136
	C1117.706543,794.822266 1118.668091,795.811890 1118.223389,797.666138
z"><animate attributeName="opacity" dur="8s" repeatCount="indefinite"
           values="1;0;1" /></path>
<path fill="#2C3849" opacity="1.000000" stroke="none"
	d="
M626.304321,412.219604
	C605.996521,411.999390 585.982727,411.999298 565.502625,411.999023
	C562.864563,412.505280 562.115112,410.699280 561.319885,409.425720
	C555.526733,400.148224 547.903625,392.773682 538.609192,387.064331
	C537.350159,386.290924 536.136841,385.378784 535.896606,383.420380
	C535.991028,362.672455 535.994019,342.273071 535.993286,321.400452
	C535.576416,318.349396 537.685547,317.492737 539.261047,316.491058
	C547.764465,311.084869 554.958557,304.383636 560.408691,295.853699
	C561.681519,293.861633 563.235901,292.107727 566.424011,292.506409
	C585.993469,292.506104 605.143738,292.506958 624.715942,292.506317
	C627.551819,291.822021 629.458801,292.749115 630.711731,294.697693
	C636.635315,303.909546 644.347778,311.253265 653.573303,317.086029
	C654.684631,317.788666 655.645569,318.782715 655.223267,320.650452
	C655.002747,341.339691 655.001648,361.718262 655.002075,382.567871
	C656.330566,385.114532 654.665527,386.211914 653.383301,387.010773
	C643.684998,393.052826 635.907349,400.960785 629.851746,410.622955
	C629.155273,411.734161 628.157837,412.688538 626.304321,412.219604
z"><animate attributeName="opacity" dur="8s" repeatCount="indefinite"
           values="1;0;1" /></path>
<path fill="#378ACD" opacity="1.000000" stroke="none"
	d="
M189.000000,417.000000
	C196.662033,417.000122 203.826248,417.102783 210.984985,416.948883
	C213.778488,416.888855 215.105057,417.294403 215.080841,420.653809
	C214.922409,442.638428 214.963562,464.624878 215.046570,486.610321
	C215.056152,489.149048 214.422455,490.066711 211.721451,490.054535
	C189.569595,489.954803 167.416870,489.954132 145.265015,490.054962
	C142.546921,490.067322 141.945221,489.116394 141.954483,486.596802
	C142.035385,464.611328 142.078400,442.624908 141.918732,420.640259
	C141.894196,417.261688 143.258667,416.930267 146.027817,416.951050
	C160.184540,417.057434 174.342484,417.000092 189.000000,417.000000
z"><animate attributeName="opacity" dur="8s" repeatCount="indefinite"
           values="1;0;1" /></path>
<path fill="#378ACD" opacity="1.000000" stroke="none"
	d="
M279.000000,580.000000
	C265.508423,580.000000 252.515671,579.905701 239.526062,580.066589
	C236.303879,580.106445 234.874863,579.639343 234.908020,575.857971
	C235.097839,554.206970 235.053528,532.553162 234.938248,510.901154
	C234.922470,507.936279 235.572113,506.903198 238.766800,506.924408
	C260.585052,507.069489 282.405151,507.068542 304.223419,506.925079
	C307.402863,506.904175 308.078979,507.910339 308.062805,510.891388
	C307.945312,532.543396 307.940063,554.196716 308.065643,575.848633
	C308.083923,579.006958 307.372986,580.183533 303.981750,580.080078
	C295.827911,579.831604 287.661407,579.999878 279.000000,580.000000
z"><animate attributeName="opacity" dur="8s" repeatCount="indefinite"
           values="1;0;1" /></path>
<path fill="#378ACD" opacity="1.000000" stroke="none"
	d="
M235.012894,419.252319
	C235.170425,416.330261 237.069351,417.030731 238.393112,417.028442
	C260.382385,416.990112 282.371979,417.044708 304.360901,416.945374
	C307.120911,416.932892 308.076996,417.615051 308.061768,420.529968
	C307.946869,442.518707 307.944794,464.508636 308.063293,486.497345
	C308.079224,489.451965 307.055847,490.064575 304.333588,490.052704
	C282.511230,489.957550 260.687531,489.907684 238.866272,490.090057
	C235.228424,490.120453 234.939026,488.621887 234.951126,485.697266
	C235.042130,463.708313 235.002228,441.718750 235.012894,419.252319
z"><animate attributeName="opacity" dur="8s" repeatCount="indefinite"
           values="1;0;1" /></path>
<path fill="#2C3749" opacity="1.000000" stroke="none"
	d="
M204.963623,506.999451
	C214.998566,506.999481 214.998581,506.999481 214.998566,516.384460
	C214.998520,535.865784 214.878494,555.348450 215.093094,574.827393
	C215.139664,579.053589 213.819443,580.124390 209.730667,580.087463
	C188.752487,579.897827 167.771133,579.921570 146.792343,580.073730
	C143.154190,580.100037 141.887665,579.180786 141.918655,575.350342
	C142.091003,554.038818 142.074585,532.724731 141.930115,511.412781
	C141.905930,507.846527 143.113098,506.911499 146.526642,506.935120
	C165.840546,507.068878 185.155838,506.999603 204.963623,506.999451
z"><animate attributeName="opacity" dur="8s" repeatCount="indefinite"
           values="1;0;1" /></path>
<path fill="#BEE3F8" opacity="1.000000" stroke="none"
	d="
M1089.894287,888.199646
	C1091.920654,887.505981 1092.312012,885.739868 1093.205078,884.410950
	C1098.787476,876.104980 1105.671753,869.134399 1114.137939,863.739868
	C1115.481934,862.883484 1117.200928,862.413818 1117.947510,860.376831
	C1126.891113,856.287964 1136.079346,853.656189 1145.609131,852.065674
	C1150.922974,851.178894 1151.999268,851.780029 1151.999878,857.104736
	C1152.002075,877.428223 1151.851440,897.753601 1152.120239,918.073547
	C1152.177490,922.403870 1150.886108,923.141602 1146.889526,923.099792
	C1126.401733,922.885864 1105.909546,922.900330 1085.421143,923.084534
	C1081.265991,923.121887 1080.808960,922.128479 1081.264648,918.029175
	C1082.364014,908.141357 1085.194702,898.861450 1088.967041,889.378540
	C1089.085571,888.641113 1089.309204,888.411499 1089.894287,888.199646
z"><animate attributeName="opacity" dur="8s" repeatCount="indefinite"
           values="1;0;1" /></path>
<path fill="#BEE3F8" opacity="1.000000" stroke="none"
	d="
M655.388428,320.993225
	C654.909546,320.106110 654.600403,319.400848 653.801392,318.943390
	C642.828430,312.661041 634.604797,303.600372 627.442627,293.032593
	C626.819519,292.755280 626.507751,292.610779 626.081299,292.249298
	C625.416687,286.311981 621.333130,281.833344 620.544128,276.183197
	C619.828369,271.056885 618.837402,265.969391 618.000549,260.859406
	C617.669983,258.841003 618.313599,257.941589 620.633179,257.950348
	C642.457764,258.032990 664.283020,258.043243 686.107483,257.941284
	C688.692017,257.929230 689.048340,258.923340 689.041321,261.144775
	C688.973572,282.636261 688.875610,304.129395 689.106018,325.618622
	C689.152283,329.932556 686.633545,329.223877 684.371521,328.950928
	C674.452087,327.754059 664.799072,325.493164 655.388428,320.993225
z"><animate attributeName="opacity" dur="8s" repeatCount="indefinite"
           values="1;0;1" /></path>
<path fill="#BEE3F8" opacity="1.000000" stroke="none"
	d="
M1118.390137,797.993774
	C1118.009644,796.571960 1116.965576,795.965271 1115.983032,795.380432
	C1105.694214,789.256775 1097.583008,780.981201 1091.443481,770.723755
	C1091.053955,770.072815 1090.285278,769.648743 1089.351685,769.059998
	C1088.365845,763.322571 1084.355835,758.818726 1083.543213,753.175842
	C1082.805420,748.052124 1081.836304,742.961975 1080.999878,737.851990
	C1080.668091,735.823608 1081.330933,734.942017 1083.640259,734.950684
	C1105.462769,735.032654 1127.286011,735.043274 1149.108398,734.941223
	C1151.693481,734.929199 1152.048096,735.924500 1152.041138,738.145020
	C1151.973511,759.634521 1151.873535,781.125671 1152.107788,802.612793
	C1152.155029,806.932922 1149.638916,806.226440 1147.378296,805.950012
	C1137.461792,804.737061 1127.799316,802.503967 1118.390137,797.993774
z"><animate attributeName="opacity" dur="8s" repeatCount="indefinite"
           values="1;0;1" /></path>
<path fill="#BEE3F8" opacity="1.000000" stroke="none"
	d="
M625.986328,412.389404
	C627.618958,411.993011 628.217529,410.739838 628.889954,409.620178
	C634.963806,399.506470 643.123901,391.502411 653.218811,385.427582
	C653.879639,385.029877 654.337280,384.294464 654.946533,383.377563
	C663.889587,379.290009 673.077332,376.657471 682.606873,375.066711
	C687.921875,374.179443 688.999390,374.779755 688.999939,380.101807
	C689.002136,400.424561 688.852356,420.749268 689.119751,441.068512
	C689.176636,445.389191 687.900452,446.142578 683.894836,446.100433
	C663.407776,445.884979 642.916260,445.900146 622.428589,446.084961
	C618.280884,446.122406 617.812927,445.138123 618.260742,441.036285
	C619.340820,431.141937 622.200195,421.871033 625.986328,412.389404
z"><animate attributeName="opacity" dur="8s" repeatCount="indefinite"
           values="1;0;1" /></path>
<path fill="#BEE3F8" opacity="1.000000" stroke="none"
	d="
M998.640991,859.932556
	C1000.697693,862.692566 1003.712891,863.523376 1006.113342,865.178711
	C1014.838440,871.194946 1021.372681,879.200195 1027.552490,887.969238
	C1028.097046,888.197510 1028.319946,888.314941 1028.342041,888.752441
	C1033.761353,898.755859 1035.653320,909.489807 1037.010010,920.384644
	C1037.452271,923.937317 1034.895020,922.973450 1033.142090,922.977112
	C1014.833435,923.015625 996.524536,923.045166 978.216187,922.965515
	C974.275330,922.948364 968.904785,924.712280 966.787109,922.220520
	C964.783569,919.862915 966.025513,914.660706 966.016846,910.709167
	C965.976990,892.567017 966.097290,874.423767 965.912781,856.283325
	C965.877625,852.830872 966.662109,851.441772 970.228882,851.973999
	C979.914246,853.419250 989.549438,854.992371 998.640991,859.932556
z"><animate attributeName="opacity" dur="8s" repeatCount="indefinite"
           values="1;0;1" /></path>
<path fill="#BEE3F8" opacity="1.000000" stroke="none"
	d="
M565.206055,292.743591
	C562.598877,293.776520 562.133728,296.117920 560.960938,297.832581
	C554.486938,307.297607 545.911011,314.404510 536.097412,320.605957
	C526.933411,325.836670 517.031250,327.680023 506.973602,329.029755
	C503.618713,329.479980 502.905243,328.142395 502.926544,324.959412
	C503.066986,303.984436 503.070770,283.007599 502.923553,262.032684
	C502.900848,258.803619 503.705933,257.894714 506.998901,257.919281
	C527.973633,258.076080 548.950500,258.065186 569.925659,257.940521
	C573.881714,257.917023 574.039062,258.675903 573.430481,262.708313
	C572.368530,269.745392 571.965637,276.834167 568.991577,283.432129
	C567.808105,286.057678 566.505859,288.629669 565.198975,291.577087
	C565.274048,292.141785 565.407837,292.355469 565.206055,292.743591
z"><animate attributeName="opacity" dur="8s" repeatCount="indefinite"
           values="1;0;1" /></path>
<path fill="#BEE3F8" opacity="1.000000" stroke="none"
	d="
M1028.111816,768.647095
	C1022.125977,777.439392 1016.155029,785.822815 1007.474915,791.751648
	C1004.736328,793.622253 1001.962830,795.441833 999.097412,797.606018
	C989.928223,802.834961 980.024353,804.685974 969.960449,806.031494
	C966.574585,806.484070 965.908020,805.099121 965.928467,801.942810
	C966.064636,780.958801 966.078003,759.972839 965.917969,738.989136
	C965.892639,735.673218 966.836182,734.902588 970.045593,734.924927
	C990.862976,735.069641 1011.682068,735.045654 1032.500000,734.955688
	C1036.196289,734.939758 1037.268677,735.042786 1036.441528,739.791565
	C1035.223999,746.782104 1034.863770,753.898926 1031.979248,760.515564
	C1030.827881,763.156677 1029.459961,765.703369 1028.111816,768.647095
z"><animate attributeName="opacity" dur="8s" repeatCount="indefinite"
           values="1;0;1" /></path>
<path fill="#BEE3F8" opacity="1.000000" stroke="none"
	d="
M535.640991,382.932556
	C537.568726,385.613678 540.467346,386.356140 542.741699,387.933380
	C551.786499,394.205811 558.810486,402.281891 564.748901,411.818939
	C570.888367,421.611847 572.517639,432.428345 574.013916,443.295807
	C574.412048,446.187714 572.674011,446.023773 570.726135,446.019165
	C556.405151,445.985260 542.083984,446.000854 527.762878,446.000854
	C520.602356,446.000824 513.439209,445.891418 506.282593,446.058533
	C503.688660,446.119141 502.927307,445.387054 502.940216,442.747070
	C503.045166,421.265900 503.069916,399.783569 502.921356,378.302948
	C502.899536,375.154236 504.162598,374.674683 506.711578,374.990662
	C516.615784,376.218597 526.375061,377.962402 535.640991,382.932556
z"><animate attributeName="opacity" dur="8s" repeatCount="indefinite"
           values="1;0;1" /></path>
<path fill="#E2E8F0" opacity="1.000000" stroke="none"
	d="
M613.252808,908.747192
	C627.268066,922.724487 641.033264,936.451721 655.298584,950.677734
	C615.638428,950.677734 576.650757,950.677734 537.525085,950.677734
	C537.181091,949.257629 538.774475,948.774353 539.570129,947.974976
	C557.299561,930.162720 575.154602,912.474670 592.779358,894.559875
	C595.497742,891.796631 596.852600,891.971375 599.299194,894.667664
	C603.655823,899.469177 608.413025,903.907227 613.252808,908.747192
z"><animate attributeName="opacity" dur="8s" repeatCount="indefinite"
           values="1;0;1" /></path>
<path fill="#2D3849" opacity="1.000000" stroke="none"
	d="
M520.818970,495.970642
	C517.286316,500.155548 513.528992,503.865631 510.049713,507.820343
	C491.862274,528.493042 482.126617,552.595337 480.910889,580.586792
	C478.835968,579.971680 479.059784,578.055176 479.033386,576.228394
	C478.652374,549.861023 468.634308,527.259888 451.868347,507.391815
	C448.341583,503.212555 444.193329,499.557800 440.153290,495.387024
	C455.216492,488.999084 470.995453,485.927155 487.445343,487.027557
	C499.052948,487.804108 510.155090,490.712219 520.818970,495.970642
z"><animate attributeName="opacity" dur="8s" repeatCount="indefinite"
           values="0;1;0" /></path>
<path fill="#2C3849" opacity="1.000000" stroke="none"
	d="
M489.272827,584.422119
	C519.696838,581.611694 545.450684,568.941284 566.575684,546.093262
	C567.644409,545.473755 568.458008,545.245422 569.734253,545.736084
	C571.035889,546.492249 570.958191,547.420715 571.049683,548.625244
	C570.690247,551.561340 571.778137,553.634766 573.650391,555.749634
	C574.585754,559.028992 575.302490,562.063171 576.041199,565.496460
	C576.620728,566.681763 575.933044,567.665771 576.669189,568.724365
	C576.917908,570.039429 576.967346,571.085388 577.033813,572.523987
	C577.711426,574.049805 576.523926,575.403320 577.673340,576.747070
	C578.775024,593.060181 577.175781,608.711182 569.957825,623.788818
	C563.569702,618.663147 557.972717,612.552002 551.267944,607.636536
	C534.269348,595.174377 515.547729,587.361511 494.358795,585.893005
	C492.739441,585.780701 491.160309,585.087708 489.272827,584.422119
z"><animate attributeName="opacity" dur="8s" repeatCount="indefinite"
           values="0;1;0" /></path>
<path fill="#2C3849" opacity="1.000000" stroke="none"
	d="
M443.738861,671.165833
	C460.124847,654.588501 471.576599,635.679993 476.509644,613.108337
	C478.108856,605.791260 479.107269,598.389832 479.129578,590.410583
	C481.747772,590.729248 480.886261,592.888306 480.935913,594.564087
	C481.717346,620.939148 491.704285,643.587708 508.788269,663.337341
	C512.028015,667.082520 515.567627,670.568298 519.070801,674.495361
	C508.763489,678.617065 498.364960,682.464966 486.555145,682.026611
	C482.616974,682.746155 479.074524,682.014526 475.205444,682.250549
	C473.164795,682.029053 471.493683,681.990295 469.406433,681.909912
	C468.005310,680.879211 466.766418,680.982361 465.227478,681.102112
	C458.232269,680.554565 451.881989,678.633362 445.326111,676.051880
	C443.790100,674.662109 442.986176,673.321167 443.738861,671.165833
z"><animate attributeName="opacity" dur="8s" repeatCount="indefinite"
           values="0;1;0" /></path>
<path fill="#336666" opacity="1.000000" stroke="none"
	d="
M565.346741,292.942169
	C564.905334,292.750244 564.940125,292.582458 565.057617,292.171387
	C585.107117,291.953064 605.073914,291.977997 625.507935,292.008301
	C626.283203,292.158417 626.591309,292.303131 627.010986,292.683167
	C606.689392,292.934418 586.256165,292.950378 565.346741,292.942169
z"><animate attributeName="opacity" dur="8s" repeatCount="indefinite"
           values="0;1;0" /></path>
<path fill="#336666" opacity="1.000000" stroke="none"
	d="
M1028.600098,889.046570
	C1028.087036,888.909729 1028.032837,888.746887 1027.926514,888.332092
	C1048.306763,888.064514 1068.739258,888.048889 1089.647705,888.057129
	C1089.909546,888.342102 1089.695679,888.603271 1089.228394,888.925903
	C1069.002930,888.998474 1049.031006,889.009521 1028.600098,889.046570
z"><animate attributeName="opacity" dur="8s" repeatCount="indefinite"
           values="0;1;0" /></path>
<path fill="#2C3849" opacity="1.000000" stroke="none"
	d="
M573.899780,555.635498
	C570.487061,554.961853 569.569641,552.678528 570.808350,549.197205
	C572.026855,551.063904 572.978760,553.170105 573.899780,555.635498
z"><animate attributeName="opacity" dur="8s" repeatCount="indefinite"
           values="0;1;0" /></path>
<path fill="#2D3849" opacity="1.000000" stroke="none"
	d="
M475.122131,682.380493
	C478.314789,681.702942 481.791656,680.967773 485.691895,682.026306
	C482.638458,683.871399 479.002747,682.943726 475.122131,682.380493
z"><animate attributeName="opacity" dur="8s" repeatCount="indefinite"
           values="0;1;0" /></path>
<path fill="#2D3849" opacity="1.000000" stroke="none"
	d="
M443.634460,670.916992
	C444.277496,672.248718 444.628601,673.689697 444.989502,675.499329
	C443.424347,676.213013 442.392181,675.164551 441.097290,674.093628
	C441.746002,672.862610 442.544250,671.944458 443.634460,670.916992
z"><animate attributeName="opacity" dur="8s" repeatCount="indefinite"
           values="0;1;0" /></path>
<path fill="#2D3849" opacity="1.000000" stroke="none"
	d="
M465.163879,681.407959
	C466.255249,679.765076 467.567627,679.395142 468.912964,681.543579
	C467.795288,681.804199 466.600250,681.740173 465.163879,681.407959
z"><animate attributeName="opacity" dur="8s" repeatCount="indefinite"
           values="0;1;0" /></path>
<path fill="#2C3849" opacity="1.000000" stroke="none"
	d="
M577.913208,576.627075
	C575.447876,576.496826 576.033020,575.042603 576.909241,573.228638
	C578.252930,573.787537 577.937378,575.070129 577.913208,576.627075
z"><animate attributeName="opacity" dur="8s" repeatCount="indefinite"
           values="0;1;0" /></path>
<path fill="#2C3849" opacity="1.000000" stroke="none"
	d="
M570.067993,545.618530
	C569.299622,545.966064 568.490417,545.974426 567.278320,545.968506
	C567.361145,544.919373 567.942627,544.003357 569.604614,543.967896
	C569.964844,544.370667 569.995911,544.825073 570.067993,545.618530
z"><animate attributeName="opacity" dur="8s" repeatCount="indefinite"
           values="0;1;0" /></path>
<path fill="#2C3849" opacity="1.000000" stroke="none"
	d="
M576.911255,568.652710
	C575.069092,568.755005 575.098511,567.752991 575.937866,566.180298
	C576.994202,566.467224 576.975403,567.389099 576.911255,568.652710
z"><animate attributeName="opacity" dur="8s" repeatCount="indefinite"
           values="0;1;0" /></path>
<path fill="#2D374C" opacity="1.000000" stroke="none"
	d="
M593.568481,185.023132
	C598.301270,163.711029 595.105530,142.038147 596.016541,120.545044
	C596.098694,118.606194 595.378357,117.902382 593.447693,117.983589
	C572.925232,118.846794 552.264160,115.958076 531.445679,120.316620
	C529.880676,112.332802 531.100464,104.483376 533.631165,96.951660
	C542.204468,71.435982 560.089417,56.104935 586.161194,50.280300
	C590.812317,49.241199 595.728088,49.084221 600.525146,49.053680
	C620.688232,48.925308 640.853577,49.099552 661.015808,48.914116
	C664.987610,48.877586 666.110840,50.066898 666.077881,54.000862
	C665.896240,75.663094 665.963745,97.327545 665.972046,118.991219
	C665.984558,151.644318 641.006592,179.552475 608.761047,184.691238
	C603.979675,185.453247 598.921753,186.326447 593.568481,185.023132
z">
<animate attributeName="opacity" dur="10s" repeatCount="indefinite"
         values="1;0;0;1" />
</path>
<path fill="#266190" opacity="1.000000" stroke="none"
	d="
M1044.512695,232.213989
	C1023.226501,230.196808 1004.659241,222.411896 988.242432,209.648193
	C973.799927,198.419601 962.017517,184.786407 954.090454,168.190323
	C949.806030,159.220428 946.376282,149.861053 944.747803,139.539307
	C943.252625,130.412521 944.382141,121.611153 943.972656,112.848312
	C942.773438,87.184242 952.046082,65.087669 967.491638,45.322201
	C984.421204,23.657516 1006.458740,9.698567 1033.611328,3.221075
	C1034.346436,18.487150 1036.988403,33.544712 1042.146973,48.533360
	C1040.961426,51.877754 1037.903809,51.821339 1035.551636,52.787319
	C1011.616882,62.617439 996.626404,80.077148 992.642151,105.648514
	C988.373291,133.046600 997.934692,155.601700 1020.386902,171.909805
	C1047.395996,191.527756 1085.372314,187.780975 1108.494995,163.749359
	C1115.260742,156.717590 1120.277100,148.492996 1123.640869,139.288635
	C1124.313965,137.447052 1124.592041,135.356659 1126.726562,133.943954
	C1141.740723,138.542145 1156.669922,141.764648 1172.600586,142.055756
	C1170.541016,151.753433 1167.701660,161.328491 1163.049316,170.094574
	C1153.337524,188.393005 1139.726562,203.271027 1122.473511,214.894669
	C1109.711670,223.492538 1095.452881,228.131165 1080.758911,231.784332
	C1078.875000,232.252731 1076.806885,231.980728 1074.388550,232.152618
	C1064.294800,232.227142 1054.636719,232.200745 1044.512695,232.213989
z">
  <animate attributeName="opacity" dur="13s" repeatCount="indefinite"
           values="0;1;0" />
</path>
<path fill="#2D384B" opacity="1.000000" stroke="none"
	d="
M1086.868774,285.051239
	C1110.959351,296.747467 1124.826416,315.428070 1127.264648,341.878479
	C1130.558594,377.613190 1104.773682,409.780304 1069.185547,414.838379
	C1033.187012,419.954773 999.160400,395.763855 992.841187,360.018768
	C988.306335,334.367432 995.864807,312.314636 1015.805542,295.522125
	C1035.718750,278.752869 1058.591309,275.221802 1083.251831,283.673645
	C1084.351440,284.050446 1085.425781,284.501190 1086.868774,285.051239
z">
  <animate attributeName="opacity" dur="7s" repeatCount="indefinite"
           values="0;1;0" />
</path>
<path fill="#378ACD" opacity="1.000000" stroke="none"
	d="
M995.181580,1076.947754
	C1015.825195,1081.037231 1036.669434,1078.203247 1057.369995,1079.010010
	C1059.754517,1079.102905 1060.061279,1077.773926 1060.007812,1075.880493
	C1059.500977,1057.951782 1061.132324,1039.978882 1058.955444,1022.089050
	C1058.577393,1018.981445 1057.704590,1015.933960 1057.098877,1012.470947
	C1070.330078,1011.010010 1082.900879,1013.082214 1094.565674,1019.585754
	C1113.144409,1029.943848 1124.354004,1045.895508 1129.226929,1066.321533
	C1130.438599,1071.400513 1130.291016,1076.773560 1130.180786,1082.136475
	C1129.766479,1102.283081 1129.924072,1122.444092 1130.091919,1142.597900
	C1130.124756,1146.540283 1129.304077,1148.146362 1124.924438,1148.098022
	C1104.771729,1147.875000 1084.607300,1148.349243 1064.462646,1147.889282
	C1048.255615,1147.519287 1033.244873,1143.506226 1020.040466,1132.931885
	C1006.598328,1122.166992 999.386353,1108.470703 995.690552,1092.077881
	C994.550171,1087.019653 995.747192,1082.227783 995.181580,1076.947754
z">
    <animate attributeName="opacity" dur="13s" repeatCount="indefinite"
             values="0;1;0" />
</path>
<path fill="#2D374A" opacity="1.000000" stroke="none"
	d="
M1126.856934,133.547455
	C1123.296753,146.459991 1117.280762,157.860519 1107.436768,166.821411
	C1091.208252,181.594086 1072.351562,187.864212 1050.220703,185.195633
	C1021.827698,181.771957 998.049805,159.164780 991.752502,131.934448
	C983.559814,96.507828 1004.940613,59.684277 1040.102417,49.811806
	C1040.577393,49.678455 1041.012451,49.403301 1041.825684,49.053787
	C1047.913452,62.191280 1054.265869,75.104210 1063.210327,86.606308
	C1079.963989,108.150627 1101.095093,123.694756 1126.856934,133.547455
z">
    <animate attributeName="opacity" dur="7s" repeatCount="indefinite"
             values="0;1;0" />
</path>
<path fill="#276190" opacity="1.000000" stroke="none"
	d="
M811.260620,1145.928711
	C783.106079,1137.830933 765.361389,1119.999268 758.517090,1091.843506
	C749.979858,1056.723755 772.895752,1018.879456 807.648560,1008.763733
	C848.111755,996.985840 888.998474,1022.145020 897.398621,1061.767944
	C902.177490,1084.309570 897.147217,1104.585205 882.354919,1122.299561
	C867.414978,1140.190796 847.971741,1148.282349 824.915466,1147.933228
	C820.490906,1147.866211 816.083252,1146.678345 811.260620,1145.928711
z">
    <animate attributeName="opacity" dur="10s" repeatCount="indefinite"
             values="1;0;1" />
</path>
<path fill="#2D384B" opacity="1.000000" stroke="none"
	d="
M894.040771,817.064209
	C900.897217,845.504333 893.901733,869.676331 871.678101,887.946838
	C849.115662,906.495972 823.369934,909.190369 797.420532,895.814514
	C772.251709,882.841125 759.731750,861.062256 760.833252,832.619507
	C762.122009,799.341064 786.567505,772.776978 818.994812,768.155579
	C851.386902,763.539062 881.921997,782.367493 893.041687,813.818359
	C893.373779,814.757507 893.661255,815.712524 894.040771,817.064209
z">
    <animate attributeName="opacity" dur="3s" repeatCount="indefinite"
             values="1;0;1" />
</path>
<path fill="#266190" opacity="1.000000" stroke="none"
	d="
M279.995026,857.097717
	C280.022705,850.008911 280.022705,850.002747 286.371887,850.001160
	C301.537048,849.997498 316.703033,850.084900 331.866791,849.938599
	C335.505005,849.903564 337.224182,850.543274 337.168365,854.813843
	C336.944092,871.975281 337.014587,889.142639 337.217438,906.304993
	C337.247620,908.860535 336.298981,908.955139 334.417297,908.951965
	C317.085754,908.922241 299.753937,908.900146 282.422668,908.975037
	C280.137756,908.984924 279.869690,908.220398 279.889069,906.077881
	C280.035065,889.914246 279.984314,873.748840 279.995026,857.097717
z">
    <animate attributeName="opacity" dur="7s" repeatCount="indefinite"
             values="1;0;1" />
</path>
<path fill="#3889CA" opacity="1.000000" stroke="none"
	d="
M77.650024,201.650146
	C81.210243,198.427444 83.919151,192.755692 87.613052,192.872940
	C90.817192,192.974670 93.899284,198.225891 96.960686,201.276093
	C106.635132,210.915146 116.195862,220.670197 125.981438,230.194565
	C128.512039,232.657669 128.425125,234.115021 125.948517,236.544769
	C114.060570,248.207794 102.288811,259.991669 90.629593,271.883453
	C88.221939,274.339111 86.776497,274.502533 84.277756,271.948944
	C72.513763,259.926941 60.625401,248.023407 48.599648,236.263458
	C46.155266,233.873108 46.529392,232.641800 48.743671,230.477585
	C58.390644,221.048798 67.863861,211.442245 77.650024,201.650146
z"><animate attributeName="opacity" dur="13s" repeatCount="indefinite"
           values="0;1;0" /></path>
<path fill="#276291" opacity="1.000000" stroke="none"
	d="
M1069.810547,789.189575
	C1081.716675,801.103271 1093.285400,812.856506 1105.088989,824.368958
	C1108.123047,827.328369 1108.542114,829.191589 1105.281494,832.385376
	C1090.408691,846.953369 1075.710815,861.702759 1061.120850,876.554688
	C1058.274536,879.452209 1056.541138,879.197571 1053.834717,876.449524
	C1039.225464,861.616211 1024.519775,846.875854 1009.678955,832.274597
	C1006.714905,829.358398 1006.731567,827.540649 1009.691589,824.629639
	C1024.535522,810.031555 1039.244141,795.293945 1053.849731,780.457153
	C1056.589355,777.674255 1058.493896,777.354126 1061.132080,780.414795
	C1063.734741,783.434509 1066.734741,786.111938 1069.810547,789.189575
z"><animate attributeName="opacity" dur="13s" repeatCount="indefinite"
           values="0;1;0" /></path>
<path fill="#276291" opacity="1.000000" stroke="none"
	d="
M612.309265,386.309326
	C607.230469,391.388153 602.317871,396.137146 597.608765,401.080017
	C595.359009,403.441437 593.707581,403.378510 591.426514,401.076355
	C576.303711,385.813538 561.108398,370.622131 545.865295,355.479340
	C543.745728,353.373718 543.649475,351.809509 545.804871,349.666992
	C561.161560,334.402130 576.468689,319.087128 591.720520,303.717529
	C593.933838,301.487183 595.499451,301.882935 597.531006,303.928711
	C612.670898,319.174805 627.834595,334.398041 643.113342,349.504547
	C645.849915,352.210236 644.821533,353.865540 642.612915,356.047180
	C632.540894,365.996368 622.567749,376.045776 612.309265,386.309326
z"><animate attributeName="opacity" dur="13s" repeatCount="indefinite"
           values="0;1;0" /></path>
<path fill="#E2E8F0" opacity="1.000000" stroke="none"
	d="
M831.228699,176.721985
	C849.966248,195.469437 868.455383,213.957916 886.996643,232.498520
	C868.116272,251.378189 849.216980,270.156738 830.509460,289.124420
	C827.966614,291.702667 826.903503,290.469788 825.097717,288.657684
	C806.524048,270.018036 787.896057,251.432526 768.961853,232.510834
	C773.518616,227.961197 778.036987,223.455582 782.549194,218.943863
	C796.681946,204.812546 810.872070,190.737625 824.885559,176.489029
	C827.268921,174.065643 828.926331,173.459503 831.228699,176.721985
z"><animate attributeName="opacity" dur="13s" repeatCount="indefinite"
           values="0;1;0" /></path>
<path fill="#378ACD" opacity="1.000000" stroke="none"
	d="
M791.552612,1057.152954
	C793.604980,1053.876099 795.197266,1050.348877 797.818848,1047.943359
	C803.607910,1042.631470 810.202515,1038.249634 818.063599,1036.652710
	C832.265686,1033.767700 845.338196,1036.773926 856.349792,1046.175781
	C861.503540,1050.576050 865.100830,1056.683228 867.002502,1063.305786
	C868.555664,1068.714722 870.651001,1074.380493 869.604919,1079.978027
	C868.153442,1087.744263 866.227051,1095.769531 860.843018,1101.830444
	C855.001709,1108.406128 848.109070,1113.611816 839.369324,1116.598999
	C829.768066,1119.880615 820.813049,1118.780151 812.144836,1114.840942
	C800.705017,1109.642090 792.807007,1101.142212 788.659729,1088.813965
	C784.898621,1077.633911 786.963501,1067.539185 791.552612,1057.152954
z"><animate attributeName="opacity" dur="13s" repeatCount="indefinite"
           values="0;1;0" /></path>
</svg>
